<svg width="220" height="220" viewBox="0 0 220 220" fill="none" xmlns="http://www.w3.org/2000/svg">
<g clip-path="url(#clip0_2142_2702)">
<circle cx="110" cy="110" r="110" fill="#FFF4E5"/>
<path d="M129.955 171.492C122.963 171.492 116.547 170.578 110.691 168.758C104.849 166.952 99.7869 164.456 95.5046 161.263C88.6228 167.25 81.6384 172.1 74.5445 175.821C67.4302 179.535 60.5894 181.396 54.0223 181.396C48.8986 181.396 45.1156 180.354 42.6666 178.284C40.2245 176.227 39 173.907 39 171.329C39 168.948 40.0398 166.742 42.1194 164.726C44.199 162.724 47.0721 161.723 50.7387 161.723C52.2027 161.723 53.7418 161.871 55.3631 162.183C56.9707 162.487 58.6124 163.109 60.2884 164.05C58.7219 163.942 57.5179 164.3 56.6765 165.132C55.8419 165.958 55.4178 166.891 55.4178 167.92C55.4178 170.605 57.771 171.952 62.4775 171.952C66.6572 171.952 71.2268 170.68 76.1863 168.136C81.1253 165.606 86.2628 162.237 91.5917 158.015C85.4419 151.913 82.3704 144.64 82.3704 136.177C82.3704 130.406 83.9027 124.994 86.9673 119.94C90.0457 114.873 94.5879 110.767 100.594 107.628C106.593 104.475 113.872 102.892 122.43 102.892C125.146 102.892 127.656 103.048 129.955 103.352C132.253 103.663 134.394 104.076 136.385 104.597C137.534 102.635 138.629 100.72 139.668 98.86C140.708 97.0063 141.7 95.1459 142.651 93.2855C138.054 90.9041 133.088 89.7134 127.766 89.7134C125.577 89.6255 123.798 89.9434 122.43 90.6606C121.075 91.3844 120.46 92.4128 120.569 93.7455C120.569 94.6859 120.959 95.5451 121.746 96.3163C122.526 97.0943 123.538 97.5273 124.783 97.6152C120.713 99.3877 117.108 100.172 113.975 99.9695C110.855 99.753 108.399 98.9277 106.614 97.4799C104.842 96.0186 103.96 94.3611 103.96 92.5007C103.96 90.7553 104.87 89.0301 106.696 87.3321C108.516 85.6205 111.361 84.3554 115.233 83.5435C112.203 83.0226 109.384 81.7034 106.778 79.5926C104.165 77.4684 102.079 74.857 100.512 71.772C98.9387 68.6736 98.1588 65.4668 98.1588 62.1654C98.1588 58.1469 99.4038 54.3042 101.908 50.6375C104.425 46.9572 108.235 43.9399 113.345 41.572C118.469 39.1907 125.002 38 132.937 38C138.259 38 142.849 38.6765 146.701 40.0296C150.566 41.3691 153.986 42.7357 156.962 44.1428C159.931 45.5365 162.626 46.2265 165.034 46.2265C166.183 46.2265 167.346 46.0506 168.536 45.6853C169.74 45.3065 170.76 44.7585 171.601 44.0346L172.066 44.3593C168.304 49.7174 164.815 56.1714 161.586 63.7079C158.357 71.2511 154.807 79.0988 150.942 87.2509C157.619 89.9434 163.228 93.502 167.77 97.94C172.313 102.378 175.733 107.33 178.031 112.796C180.33 118.263 181.479 123.939 181.479 129.818C181.479 137.977 179.304 145.202 174.967 151.494C170.643 157.805 164.61 162.71 156.88 166.215C149.163 169.733 140.188 171.492 129.955 171.492ZM99.2807 134.472C99.2807 139.526 100.375 144.072 102.564 148.111C107.886 142.848 113.078 137.09 118.134 130.846C123.203 124.588 127.82 118.209 131.979 111.714C129.168 110.577 125.987 110.009 122.43 110.009C118.161 110.009 114.276 111.024 110.773 113.04C107.271 115.042 104.48 117.877 102.4 121.537C100.32 125.204 99.2807 129.513 99.2807 134.472ZM105.218 152.116C107.934 155.634 111.457 158.421 115.781 160.478C120.118 162.548 124.947 163.59 130.256 163.59C137.37 163.59 143.424 162.135 148.425 159.233C153.439 156.344 157.277 152.373 159.944 147.326C162.606 142.279 163.939 136.495 163.939 129.98C163.939 122.66 162.366 116.003 159.233 110.009C156.093 104.022 151.913 99.2795 146.701 95.7751C145.77 97.5273 144.826 99.2592 143.882 100.971C142.952 102.669 141.967 104.394 140.927 106.139C146.762 108.521 151.038 111.755 153.76 115.827C156.476 119.907 157.838 124 157.838 128.113C157.838 132.246 156.504 135.893 153.843 139.045C151.175 142.185 147.446 143.754 142.651 143.754C139.094 143.754 135.927 142.645 133.156 140.426C130.399 138.207 129.024 134.52 129.024 129.358C129.531 130.494 130.338 131.353 131.432 131.928C132.527 132.49 133.649 132.767 134.798 132.767C137.315 132.767 139.149 131.658 140.298 129.439C141.447 127.22 141.7 124.642 141.064 121.699C140.442 118.763 138.718 116.206 135.892 114.041C131.405 120.644 126.575 127.206 121.417 133.714C116.253 140.209 110.855 146.345 105.218 152.116ZM115.562 62.1654C115.562 67.219 117.231 71.1158 120.569 73.8557C123.907 76.6024 127.608 77.969 131.679 77.969C135.434 77.969 138.772 76.8798 141.693 74.6946L142.022 75.0193L137.014 83.5435C138.56 83.7465 140.12 83.9968 141.693 84.3012C143.26 84.6124 144.717 85.0251 146.071 85.546C149.314 77.5022 150.942 70.5814 150.942 64.7903C150.942 59.0196 149.287 54.3313 145.989 50.7186C142.706 47.0925 138.355 45.2794 132.937 45.2794C127.807 45.2794 123.634 46.8895 120.405 50.0962C117.176 53.2894 115.562 57.3147 115.562 62.1654Z" fill="#13319D"/>
</g>
<defs>
<clipPath id="clip0_2142_2702">
<rect width="220" height="220" fill="white"/>
</clipPath>
</defs>
</svg>
