<svg width="376" height="231" viewBox="0 0 376 231" fill="none" xmlns="http://www.w3.org/2000/svg">
<path d="M87.0957 149.454C81.7728 149.454 76.8874 148.751 72.429 147.35C67.9811 145.959 64.127 144.037 60.8665 141.579C55.627 146.188 50.3092 149.923 44.9082 152.787C39.4915 155.647 34.2832 157.079 29.2832 157.079C25.3822 157.079 22.502 156.277 20.6374 154.683C18.778 153.1 17.8457 151.313 17.8457 149.329C17.8457 147.496 18.6374 145.798 20.2207 144.246C21.804 142.704 23.9915 141.933 26.7832 141.933C27.8978 141.933 29.0697 142.048 30.304 142.287C31.528 142.522 32.778 143.001 34.054 143.725C32.8613 143.641 31.9447 143.917 31.304 144.558C30.6686 145.194 30.3457 145.912 30.3457 146.704C30.3457 148.772 32.1374 149.808 35.7207 149.808C38.903 149.808 42.3822 148.829 46.1582 146.871C49.9186 144.923 53.8301 142.329 57.8874 139.079C53.2051 134.381 50.8665 128.782 50.8665 122.266C50.8665 117.824 52.0332 113.657 54.3665 109.766C56.7103 105.865 60.1686 102.704 64.7415 100.287C69.3092 97.8602 74.8509 96.6414 81.3665 96.6414C83.4342 96.6414 85.3457 96.7612 87.0957 96.9956C88.8457 97.2352 90.4759 97.5529 91.9915 97.9539C92.8665 96.4435 93.6999 94.9696 94.4915 93.5373C95.2832 92.1102 96.0384 90.6779 96.7624 89.2456C93.2624 87.4123 89.4811 86.4956 85.429 86.4956C83.7624 86.4279 82.4082 86.6727 81.3665 87.2248C80.3353 87.7821 79.8665 88.5737 79.9499 89.5998C79.9499 90.3237 80.2467 90.9852 80.8457 91.5789C81.4395 92.1779 82.2103 92.5112 83.1582 92.5789C80.0592 93.9435 77.3145 94.5477 74.929 94.3914C72.554 94.2248 70.6842 93.5894 69.3249 92.4748C67.9759 91.3498 67.304 90.0737 67.304 88.6414C67.304 87.2977 67.9967 85.9696 69.3874 84.6623C70.7728 83.3446 72.9395 82.3706 75.8874 81.7456C73.5801 81.3446 71.4342 80.3289 69.4499 78.7039C67.4603 77.0685 65.8717 75.0581 64.679 72.6831C63.4811 70.2977 62.8874 67.8289 62.8874 65.2873C62.8874 62.1935 63.8353 59.2352 65.7415 56.4123C67.6582 53.5789 70.5592 51.256 74.4499 49.4331C78.3509 47.5998 83.3249 46.6831 89.3665 46.6831C93.4186 46.6831 96.9134 47.2039 99.8457 48.2456C102.788 49.2769 105.393 50.3289 107.658 51.4123C109.919 52.4852 111.971 53.0164 113.804 53.0164C114.679 53.0164 115.564 52.881 116.471 52.5998C117.387 52.3081 118.163 51.8862 118.804 51.3289L119.158 51.5789C116.294 55.7039 113.637 60.6727 111.179 66.4748C108.721 72.2821 106.018 78.3237 103.075 84.5998C108.158 86.6727 112.429 89.4123 115.887 92.8289C119.346 96.2456 121.95 100.058 123.7 104.266C125.45 108.475 126.325 112.845 126.325 117.371C126.325 123.652 124.669 129.214 121.367 134.058C118.075 138.917 113.481 142.694 107.596 145.391C101.721 148.1 94.8874 149.454 87.0957 149.454ZM63.7415 120.954C63.7415 124.845 64.5749 128.345 66.2415 131.454C70.2936 127.402 74.2467 122.97 78.0957 118.162C81.9551 113.345 85.4707 108.433 88.6374 103.433C86.4967 102.558 84.0749 102.121 81.3665 102.121C78.1165 102.121 75.1582 102.902 72.4915 104.454C69.8249 105.996 67.6999 108.178 66.1165 110.996C64.5332 113.819 63.7415 117.136 63.7415 120.954ZM68.2624 134.537C70.3301 137.246 73.0124 139.391 76.304 140.975C79.6061 142.569 83.2832 143.371 87.3249 143.371C92.7415 143.371 97.3509 142.251 101.158 140.016C104.976 137.792 107.898 134.735 109.929 130.85C111.955 126.964 112.971 122.511 112.971 117.496C112.971 111.86 111.773 106.735 109.387 102.121C106.997 97.5112 103.814 93.8602 99.8457 91.1623C99.1374 92.5112 98.4186 93.8446 97.6999 95.1623C96.9915 96.4696 96.2415 97.7977 95.4499 99.1414C99.8926 100.975 103.148 103.464 105.221 106.6C107.288 109.74 108.325 112.891 108.325 116.058C108.325 119.24 107.309 122.048 105.283 124.475C103.252 126.891 100.413 128.1 96.7624 128.1C94.054 128.1 91.6426 127.246 89.5332 125.537C87.4342 123.829 86.3874 120.99 86.3874 117.016C86.7728 117.891 87.3874 118.553 88.2207 118.996C89.054 119.428 89.9082 119.641 90.7832 119.641C92.6999 119.641 94.0957 118.787 94.9707 117.079C95.8457 115.371 96.0384 113.386 95.554 111.121C95.0801 108.86 93.7676 106.891 91.6165 105.225C88.1999 110.308 84.5228 115.36 80.5957 120.371C76.6634 125.371 72.554 130.095 68.2624 134.537ZM76.1374 65.2873C76.1374 69.1779 77.4082 72.1779 79.9499 74.2873C82.4915 76.4019 85.3092 77.4539 88.4082 77.4539C91.2676 77.4539 93.8092 76.6154 96.0332 74.9331L96.2832 75.1831L92.4707 81.7456C93.6478 81.9019 94.8353 82.0946 96.0332 82.3289C97.2259 82.5685 98.3353 82.8862 99.3665 83.2873C101.835 77.0946 103.075 71.7664 103.075 67.3081C103.075 62.8654 101.814 59.256 99.304 56.4748C96.804 53.6831 93.4915 52.2873 89.3665 52.2873C85.4603 52.2873 82.2832 53.5269 79.8249 55.9956C77.3665 58.4539 76.1374 61.5529 76.1374 65.2873Z" fill="#FFF4E5"/>
<path d="M124.891 132.641C126.474 132.089 127.735 130.996 128.683 129.371C129.641 127.735 130.641 124.886 131.683 120.829L142.412 79.7039C143.605 75.1779 144.141 71.8029 144.016 69.5789C143.891 67.3601 143.152 65.9695 141.808 65.4122V65.0372H159.204L174.224 120.829C175.183 124.652 176.152 127.412 177.141 129.121C178.141 130.829 179.438 132.006 181.037 132.641V132.996H160.412V132.641C162.079 132.006 163.105 130.636 163.495 128.537C163.896 126.428 163.542 123.225 162.433 118.933L161.724 116.308H141.454L140.849 118.933C139.818 123.141 139.464 126.303 139.787 128.412C140.105 130.511 141.141 131.923 142.891 132.641V132.996H124.891V132.641ZM143.245 109.162H159.933L151.099 76.8497L143.245 109.162Z" fill="#FFF4E5"/>
<path d="M180.309 132.641C182.21 132.006 183.538 130.673 184.288 128.641C185.049 126.615 185.434 123.381 185.434 118.933V79.1206C185.434 74.6622 185.049 71.4226 184.288 69.3914C183.538 67.3654 182.21 66.0372 180.309 65.4122V65.0372H201.288V65.4122C199.382 66.0372 198.049 67.3654 197.288 69.3914C196.538 71.4226 196.163 74.6622 196.163 79.1206V125.85H204.622C207.965 125.85 210.965 125.016 213.622 123.35C216.288 121.673 218.174 119.443 219.288 116.662L219.767 116.787L216.559 134.308C216.002 133.433 214.851 132.996 213.101 132.996H180.309V132.641Z" fill="#FFF4E5"/>
<path d="M221.911 132.641C223.812 132.006 225.14 130.673 225.89 128.641C226.65 126.615 227.036 123.381 227.036 118.933V79.1206C227.036 74.6622 226.65 71.4226 225.89 69.3914C225.14 67.3654 223.812 66.0372 221.911 65.4122V65.0372H242.89V65.4122C240.984 66.0372 239.65 67.3654 238.89 69.3914C238.14 71.4226 237.765 74.6622 237.765 79.1206V118.933C237.765 123.381 238.14 126.615 238.89 128.641C239.65 130.673 240.984 132.006 242.89 132.641V132.996H221.911V132.641Z" fill="#FFF4E5"/>
<path d="M246.228 132.641C247.895 132.089 249.082 131.095 249.791 129.662C250.51 128.235 250.947 126.641 251.103 124.891C251.27 123.141 251.353 121.553 251.353 120.121V79.5998C251.353 75.5477 250.957 72.4071 250.166 70.1831C249.374 67.9487 248.062 66.3602 246.228 65.4123V65.0373C253.062 64.6518 258.942 65.7664 263.874 68.3914C268.801 71.0164 272.895 74.6779 276.145 79.3706C279.405 84.0529 281.989 89.256 283.895 94.9748V77.9123C283.895 76.4852 283.812 74.9018 283.645 73.1623C283.489 71.4123 283.051 69.8237 282.332 68.3914C281.624 66.9643 280.437 65.9696 278.77 65.4123V65.0373H297.603V65.4123C295.937 65.9696 294.739 66.9643 294.02 68.3914C293.312 69.8237 292.874 71.4123 292.707 73.1623C292.551 74.9018 292.478 76.4852 292.478 77.9123V132.996H284.02C284.02 126.402 283.4 120.079 282.166 114.037C280.942 107.996 279.233 102.574 277.041 97.7664C274.858 92.9643 272.296 89.0321 269.353 85.9748C266.405 82.9071 263.27 81.0164 259.937 80.3081V120.121C259.937 121.553 260.01 123.141 260.166 124.891C260.332 126.641 260.77 128.235 261.478 129.662C262.197 131.095 263.395 132.089 265.062 132.641V132.996H246.228V132.641Z" fill="#FFF4E5"/>
<path d="M296.662 132.641C298.245 132.089 299.506 130.996 300.454 129.371C301.412 127.735 302.412 124.886 303.454 120.829L314.183 79.7039C315.376 75.1779 315.912 71.8029 315.787 69.5789C315.662 67.3601 314.923 65.9695 313.579 65.4122V65.0372H330.975L345.995 120.829C346.954 124.652 347.923 127.412 348.912 129.121C349.912 130.829 351.209 132.006 352.808 132.641V132.996H332.183V132.641C333.85 132.006 334.876 130.636 335.266 128.537C335.667 126.428 335.313 123.225 334.204 118.933L333.495 116.308H313.225L312.62 118.933C311.589 123.141 311.235 126.303 311.558 128.412C311.876 130.511 312.912 131.923 314.662 132.641V132.996H296.662V132.641ZM315.016 109.162H331.704L322.87 76.8497L315.016 109.162Z" fill="#FFF4E5"/>
<path d="M30.6589 177.956V181.435H30.2422V180.831C30.2422 180.279 30.0443 179.799 29.6589 179.393C29.2682 178.992 28.7839 178.789 28.2005 178.789H19.4505V191.601H26.4714C27.013 191.575 27.4766 191.372 27.8672 190.997C28.2526 190.612 28.4505 190.138 28.4505 189.581V188.956H28.8672V195.497H28.4505V194.893C28.4505 194.341 28.263 193.867 27.888 193.476C27.513 193.091 27.0547 192.883 26.513 192.851H19.4505V203.518C19.4505 204.226 19.7109 204.841 20.2422 205.351C20.7682 205.867 21.3932 206.122 22.1172 206.122H22.638V206.539H13.5547V206.122H14.0964C14.8151 206.122 15.4349 205.867 15.9505 205.351C16.4609 204.841 16.7318 204.226 16.763 203.518V180.289C16.763 179.622 16.4922 179.06 15.9505 178.601C15.4089 178.143 14.7891 177.914 14.0964 177.914H13.5964L13.5547 177.497H25.7214C26.5807 177.497 27.513 177.414 28.513 177.247C29.5234 177.081 30.2422 176.914 30.6589 176.747V177.956Z" fill="#FFF4E5"/>
<path d="M44.5476 178.789H41.8809V203.518C41.8809 204.226 42.1361 204.841 42.6518 205.351C43.1622 205.867 43.7976 206.122 44.5476 206.122H45.0268L45.0684 206.539H35.9851V206.122H36.5268C37.2455 206.122 37.8653 205.872 38.3809 205.372C38.8914 204.872 39.1622 204.268 39.1934 203.56V180.539C39.1622 179.82 38.8914 179.2 38.3809 178.685C37.8653 178.174 37.2455 177.914 36.5268 177.914H35.9851V177.497H47.1934C49.7039 177.497 51.6778 178.2 53.1101 179.601C54.5528 180.992 55.2768 182.805 55.2768 185.039C55.2768 187.263 54.5893 189.185 53.2143 190.81C51.8497 192.424 50.1934 193.226 48.2351 193.226C48.6518 193.424 49.1361 193.805 49.6934 194.372C50.2611 194.93 50.7664 195.513 51.2143 196.122C53.5893 199.529 55.1361 201.622 55.8601 202.414C56.5789 203.206 57.0945 203.747 57.4018 204.039C57.7039 204.32 58.032 204.596 58.3809 204.872C58.7403 205.154 59.0997 205.372 59.4643 205.539C60.2664 205.93 61.1309 206.122 62.0476 206.122V206.539H59.7559C58.5736 206.539 57.4695 206.325 56.4434 205.893C55.4122 205.466 54.6414 205.029 54.1309 204.581C53.6309 204.122 53.1934 203.68 52.8184 203.247C52.4434 202.82 51.407 201.388 49.7143 198.956C48.032 196.513 47.0528 195.122 46.7768 194.789C46.4955 194.445 46.2039 194.101 45.9018 193.768C45.0268 192.825 44.1414 192.351 43.2559 192.351V191.935C43.4747 191.966 43.7664 191.976 44.1309 191.976C44.4903 191.976 44.9278 191.966 45.4434 191.935C48.8705 191.851 51.032 190.414 51.9226 187.622C52.0893 187.07 52.1726 186.555 52.1726 186.081C52.1726 185.596 52.1726 185.284 52.1726 185.143C52.1153 183.284 51.6309 181.789 50.7143 180.664C49.808 179.529 48.5789 178.914 47.0268 178.831C46.3601 178.805 45.532 178.789 44.5476 178.789Z" fill="#FFF4E5"/>
<path d="M89.9808 177.914H89.335C88.7516 177.914 88.2412 178.101 87.8141 178.476C87.3818 178.851 87.1527 179.32 87.1266 179.872V196.289C87.1266 199.529 86.0954 202.143 84.0433 204.143C82.0016 206.133 79.2777 207.122 75.8766 207.122C72.486 207.122 69.7308 206.138 67.6058 204.164C65.4912 202.18 64.4391 199.57 64.4391 196.331V179.997C64.4391 179.164 64.0745 178.555 63.3558 178.164C63.0225 177.997 62.6475 177.914 62.2308 177.914H61.585V177.497H70.0016V177.914H69.335C68.7204 177.914 68.21 178.101 67.7933 178.476C67.3766 178.851 67.1527 179.331 67.1266 179.914V195.747C67.1266 198.763 67.9287 201.2 69.5433 203.06C71.1683 204.909 73.335 205.831 76.0433 205.831C78.762 205.831 80.9652 204.956 82.6475 203.206C84.3245 201.445 85.1683 199.138 85.1683 196.289V179.914C85.137 179.331 84.9183 178.851 84.5016 178.476C84.0954 178.101 83.5902 177.914 82.9808 177.914H82.3141V177.497H89.9808V177.914Z" fill="#FFF4E5"/>
<path d="M116.486 181.206C116.486 180.539 116.246 179.966 115.778 179.477C115.304 178.992 114.746 178.737 114.111 178.706H106.236V203.56C106.262 204.268 106.533 204.872 107.049 205.372C107.559 205.872 108.174 206.122 108.882 206.122H109.424V206.539H100.34V206.122H100.882C101.601 206.122 102.22 205.872 102.736 205.372C103.246 204.872 103.517 204.284 103.549 203.602V178.706H95.6527C94.986 178.737 94.4235 178.992 93.9652 179.477C93.5173 179.966 93.2985 180.539 93.2985 181.206V181.893L92.8818 181.935V176.706C93.2985 176.872 94.012 177.039 95.0277 177.206C96.0537 177.372 96.9964 177.456 97.861 177.456H111.882C113.226 177.456 114.351 177.352 115.257 177.143C116.158 176.935 116.705 176.789 116.903 176.706V181.935L116.486 181.893V181.206Z" fill="#FFF4E5"/>
<path d="M122.739 181.101C125.697 178.31 129.53 176.914 134.239 176.914C138.958 176.914 142.801 178.31 145.76 181.101C148.718 183.883 150.197 187.529 150.197 192.039C150.197 196.539 148.718 200.18 145.76 202.956C142.801 205.737 138.958 207.122 134.239 207.122C129.53 207.122 125.697 205.737 122.739 202.956C119.78 200.18 118.301 196.539 118.301 192.039C118.301 187.529 119.78 183.883 122.739 181.101ZM124.989 202.06C127.322 204.601 130.395 205.872 134.218 205.872C138.036 205.872 141.114 204.601 143.447 202.06C145.78 199.518 146.947 196.18 146.947 192.039C146.947 187.888 145.78 184.539 143.447 181.997C141.114 179.445 138.036 178.164 134.218 178.164C130.395 178.164 127.322 179.445 124.989 181.997C122.655 184.539 121.489 187.888 121.489 192.039C121.489 196.18 122.655 199.518 124.989 202.06Z" fill="#FFF4E5"/>
<path d="M154.314 204.831C154.231 204.445 154.189 203.7 154.189 202.601C154.189 201.492 154.398 200.32 154.814 199.081H155.189C155.158 199.388 155.148 199.685 155.148 199.976C155.148 201.674 155.658 203.081 156.689 204.206C157.715 205.32 159.07 205.872 160.752 205.872C162.486 205.872 163.919 205.351 165.044 204.31C166.169 203.258 166.731 201.935 166.731 200.351C166.731 198.758 166.189 197.456 165.106 196.456L157.148 189.081C155.648 187.695 154.898 186.018 154.898 184.06C154.898 182.101 155.549 180.424 156.856 179.018C158.174 177.617 159.96 176.914 162.21 176.914C163.252 176.914 164.439 177.055 165.773 177.331H167.398V182.435H167.023C167.023 181.143 166.57 180.112 165.669 179.331C164.762 178.555 163.606 178.164 162.189 178.164C160.783 178.164 159.606 178.638 158.648 179.581C157.7 180.529 157.231 181.706 157.231 183.122C157.231 184.529 157.778 185.737 158.877 186.747L167.064 194.31C168.439 195.575 169.127 197.32 169.127 199.539C169.127 201.747 168.419 203.57 167.002 204.997C165.596 206.414 163.721 207.122 161.377 207.122C160.153 207.122 158.856 206.935 157.481 206.56C156.117 206.185 155.064 205.612 154.314 204.831Z" fill="#FFF4E5"/>
<path d="M198.436 177.497C202.863 177.497 206.457 178.841 209.207 181.518C211.957 184.185 213.332 187.695 213.332 192.039C213.332 196.372 211.957 199.872 209.207 202.539C206.457 205.206 202.863 206.539 198.436 206.539H184.374V206.122H184.915C185.634 206.122 186.254 205.867 186.769 205.351C187.28 204.841 187.551 204.226 187.582 203.518V180.289C187.582 179.622 187.311 179.06 186.769 178.601C186.228 178.143 185.608 177.914 184.915 177.914H184.415L184.374 177.497H198.436ZM190.269 178.747V205.289H198.436C200.769 205.289 202.821 204.742 204.603 203.643C206.379 202.534 207.759 200.976 208.749 198.976C209.733 196.966 210.228 194.643 210.228 192.018C210.228 188.034 209.134 184.825 206.957 182.393C204.79 179.966 201.946 178.747 198.436 178.747H190.269Z" fill="#FFF4E5"/>
<path d="M221.872 181.101C224.831 178.31 228.664 176.914 233.372 176.914C238.091 176.914 241.935 178.31 244.893 181.101C247.851 183.883 249.331 187.529 249.331 192.039C249.331 196.539 247.851 200.18 244.893 202.956C241.935 205.737 238.091 207.122 233.372 207.122C228.664 207.122 224.831 205.737 221.872 202.956C218.914 200.18 217.435 196.539 217.435 192.039C217.435 187.529 218.914 183.883 221.872 181.101ZM224.122 202.06C226.456 204.601 229.529 205.872 233.351 205.872C237.169 205.872 240.247 204.601 242.581 202.06C244.914 199.518 246.081 196.18 246.081 192.039C246.081 187.888 244.914 184.539 242.581 181.997C240.247 179.445 237.169 178.164 233.351 178.164C229.529 178.164 226.456 179.445 224.122 181.997C221.789 184.539 220.622 187.888 220.622 192.039C220.622 196.18 221.789 199.518 224.122 202.06Z" fill="#FFF4E5"/>
<path d="M298.626 206.122H299.292V206.539H290.292V206.164H290.917C291.376 206.164 291.771 205.987 292.105 205.622C292.438 205.263 292.573 204.846 292.521 204.372L290.667 183.518L281.959 202.893C281.178 204.575 280.709 205.987 280.542 207.122H280.126L269.501 184.101L267.73 204.372C267.672 204.82 267.803 205.226 268.126 205.601C268.459 205.976 268.86 206.164 269.334 206.164H269.959V206.539H261.917V206.122H262.584C263.344 206.122 264.011 205.888 264.584 205.414C265.152 204.945 265.49 204.31 265.605 203.518L268.709 176.914H269.126L280.709 201.935L292.021 176.914H292.396L295.605 203.518C295.714 204.31 296.053 204.945 296.626 205.414C297.209 205.888 297.876 206.122 298.626 206.122Z" fill="#FFF4E5"/>
<path d="M329.601 206.122H329.913V206.539H320.601V206.122H320.955C321.538 206.122 321.976 205.935 322.268 205.56C322.559 205.185 322.705 204.841 322.705 204.518C322.705 204.185 322.648 203.851 322.538 203.518L319.893 196.456H308.684L305.913 203.56C305.799 203.893 305.747 204.221 305.747 204.539C305.747 204.846 305.893 205.185 306.184 205.56C306.476 205.935 306.903 206.122 307.476 206.122H307.851V206.539H299.518V206.122H299.893C300.585 206.122 301.257 205.904 301.913 205.456C302.58 205.013 303.122 204.367 303.538 203.518L312.913 181.206C313.939 178.956 314.455 177.529 314.455 176.914H314.83L325.934 203.518C326.32 204.367 326.851 205.013 327.518 205.456C328.184 205.904 328.877 206.122 329.601 206.122ZM309.184 195.206H319.393L314.413 181.893L309.184 195.206Z" fill="#FFF4E5"/>
<path d="M340.454 178.789H337.788V203.518C337.788 204.226 338.043 204.841 338.559 205.351C339.069 205.867 339.704 206.122 340.454 206.122H340.934L340.975 206.539H331.892V206.122H332.434C333.152 206.122 333.772 205.872 334.288 205.372C334.798 204.872 335.069 204.268 335.1 203.56V180.539C335.069 179.82 334.798 179.2 334.288 178.685C333.772 178.174 333.152 177.914 332.434 177.914H331.892V177.497H343.1C345.611 177.497 347.585 178.2 349.017 179.601C350.46 180.992 351.184 182.805 351.184 185.039C351.184 187.263 350.496 189.185 349.121 190.81C347.756 192.424 346.1 193.226 344.142 193.226C344.559 193.424 345.043 193.805 345.6 194.372C346.168 194.93 346.673 195.513 347.121 196.122C349.496 199.529 351.043 201.622 351.767 202.414C352.486 203.206 353.001 203.747 353.309 204.039C353.611 204.32 353.939 204.596 354.288 204.872C354.647 205.154 355.006 205.372 355.371 205.539C356.173 205.93 357.038 206.122 357.954 206.122V206.539H355.663C354.48 206.539 353.376 206.325 352.35 205.893C351.319 205.466 350.548 205.029 350.038 204.581C349.538 204.122 349.1 203.68 348.725 203.247C348.35 202.82 347.314 201.388 345.621 198.956C343.939 196.513 342.96 195.122 342.684 194.789C342.402 194.445 342.111 194.101 341.809 193.768C340.934 192.825 340.048 192.351 339.163 192.351V191.935C339.381 191.966 339.673 191.976 340.038 191.976C340.397 191.976 340.835 191.966 341.35 191.935C344.777 191.851 346.939 190.414 347.829 187.622C347.996 187.07 348.079 186.555 348.079 186.081C348.079 185.596 348.079 185.284 348.079 185.143C348.022 183.284 347.538 181.789 346.621 180.664C345.715 179.529 344.486 178.914 342.934 178.831C342.267 178.805 341.439 178.789 340.454 178.789Z" fill="#FFF4E5"/>
</svg>
