<svg width="330" height="89" viewBox="0 0 330 89" fill="none" xmlns="http://www.w3.org/2000/svg">
<path d="M47.6436 88.5072C40.8888 88.5072 34.6069 87.2559 28.7937 84.7573C22.989 82.2672 17.9333 78.7893 13.6268 74.328C9.32867 69.8666 5.98056 64.631 3.58248 58.6254C1.19276 52.6239 0 46.0783 0 38.9887C0 31.7024 1.41039 25.1568 4.23536 19.352C7.05614 13.5389 11.1576 8.93942 16.5397 5.55783C21.9176 2.17624 28.3836 0.485443 35.942 0.485443C38.227 0.485443 40.7172 0.732366 43.4082 1.22203C46.1077 1.71587 48.6857 2.53616 51.1424 3.68289C53.6074 4.8338 55.6121 6.37812 57.1522 8.32002C58.6924 10.2536 59.4624 12.6642 59.4624 15.5519C59.4624 17.8538 58.9686 19.8208 57.9893 21.4613C57.0058 23.1019 55.7293 24.483 54.1557 25.5963C49.167 29.2038 44.8479 32.8617 41.1985 36.5781C37.5574 40.2861 34.7534 43.7765 32.778 47.0576C30.811 50.3388 29.8317 53.26 29.8317 55.8129C29.8317 56.5412 30.0242 57.2484 30.4176 57.939C30.8194 58.6212 31.4429 58.9602 32.2925 58.9602C33.0165 58.9602 33.5899 58.6547 34.0168 58.0394C34.4395 57.4159 34.6864 56.7755 34.7534 56.1143C35.0212 56.8969 35.2305 57.7004 35.3895 58.5249C35.5569 59.3536 35.6406 60.1906 35.6406 61.036C35.6406 62.8775 35.0966 64.652 34.0168 66.3595C32.9328 68.0587 31.3425 68.9041 29.2457 68.9041C27.4712 68.9041 26.0399 68.134 24.9602 66.5939C23.8762 65.0537 23.3363 63.07 23.3363 60.6342C23.3363 56.7086 24.4328 52.8582 26.6342 49.0832C28.8314 45.2999 31.6396 41.6923 35.0547 38.2521C38.4698 34.8036 42.0439 31.6689 45.7854 28.8439C44.8563 28.9779 43.9523 29.095 43.0734 29.1955C42.1904 29.2876 41.2864 29.3294 40.3615 29.3294C38.8548 29.3294 37.1138 29.1704 35.1384 28.8439C33.1714 28.5091 31.2546 27.9525 29.3797 27.1699C27.5131 26.3789 25.973 25.3284 24.7593 24.0226C23.5414 22.7085 22.9346 21.0345 22.9346 19.0005C22.9346 16.7698 23.7548 15.1125 25.3954 14.0285C27.036 12.9488 28.8774 12.4047 30.9198 12.4047C32.5604 12.4047 34.134 12.7856 35.6406 13.5431C37.1473 14.2922 38.068 15.5519 38.4028 17.3264C37.6746 16.8033 36.9171 16.5396 36.1261 16.5396C35.2096 16.5396 34.4395 16.82 33.8159 17.3767C33.1881 17.9375 32.8784 18.674 32.8784 19.5864C32.8784 20.8378 33.3011 21.8422 34.1507 22.5997C35.0087 23.3488 36.0466 23.8887 37.2645 24.2235C38.4782 24.55 39.5788 24.709 40.5624 24.709C43.2492 24.709 45.5008 23.8887 47.3088 22.2482C49.1168 20.6076 50.0208 18.4104 50.0208 15.6524C50.0208 13.2878 49.2925 11.3501 47.8445 9.84341C46.4048 8.33676 44.6303 7.20677 42.521 6.44508C40.4201 5.68757 38.3568 5.30672 36.327 5.30672C31.7275 5.30672 27.8228 6.37812 24.6086 8.5209C21.3944 10.6553 18.7996 13.4426 16.8243 16.8912C14.8572 20.3314 13.4343 24.0687 12.5554 28.1073C11.6723 32.1376 11.2329 36.0884 11.2329 39.9596C11.2329 46.3336 12.1118 52.2598 13.8779 57.7381C15.6524 63.2206 18.1133 67.9917 21.2605 72.0513C24.4161 76.1234 28.1283 79.2916 32.393 81.5599C36.6534 83.8241 41.2822 84.9582 46.2709 84.9582C46.9279 84.9582 47.8152 84.9248 48.9326 84.8578C50.0459 84.7908 51.1968 84.6234 52.3812 84.3556C53.5614 84.0961 54.5616 83.6901 55.3777 83.1335C56.2022 82.5727 56.6165 81.8361 56.6165 80.9238C56.6165 80.3964 56.3989 79.9696 55.9637 79.6347C55.5368 79.3083 55.0639 79.1493 54.5407 79.1493C54.0134 79.1493 53.5237 79.2832 53.0675 79.551C53.8585 78.0988 55.0094 76.9604 56.5161 76.136C58.0227 75.3199 59.5964 74.9139 61.2369 74.9139C62.618 74.9139 63.8819 75.3031 65.0203 76.0857C66.167 76.8767 66.7446 78.0318 66.7446 79.551C66.7446 81.4469 66.008 82.987 64.5348 84.1714C63.0616 85.3516 61.2537 86.2556 59.1109 86.8834C56.9765 87.507 54.863 87.9297 52.7662 88.1557C50.6653 88.39 48.9577 88.5072 47.6436 88.5072Z" fill="#F65135"/>
<path d="M53.2534 71.4654C54.5717 71.0092 55.618 70.1094 56.4006 68.7701C57.1916 67.4225 58.0161 65.0705 58.8782 61.7224L67.734 27.7558C68.7133 24.0185 69.1569 21.2353 69.0565 19.4023C68.9561 17.5608 68.345 16.4057 67.2318 15.937V15.6524H81.6119L94.0167 61.7224C94.8076 64.8696 95.6112 67.1547 96.4273 68.5692C97.2518 69.9754 98.319 70.9422 99.6247 71.4654V71.7667H82.5996V71.4654C83.9723 70.9422 84.8177 69.8164 85.1442 68.0838C85.479 66.3427 85.186 63.6977 84.2737 60.1487L83.6877 57.9892H66.9472L66.445 60.1487C65.5954 63.6308 65.2982 66.2423 65.5577 67.9833C65.8256 69.716 66.6793 70.8752 68.119 71.4654V71.7667H53.2534V71.4654ZM68.4204 52.0798H82.1978L74.9157 25.3954L68.4204 52.0798Z" fill="#F65135"/>
<path d="M99.0316 71.4654C100.605 70.9422 101.702 69.8415 102.33 68.1675C102.953 66.4934 103.267 63.8233 103.267 60.1487V27.2703C103.267 23.5874 102.953 20.9173 102.33 19.2516C101.702 17.5775 100.605 16.4727 99.0316 15.937V15.6524H122.954C127.75 15.6524 131.592 16.9037 134.471 19.4023C137.359 21.8924 138.807 25.0062 138.807 28.7435C138.807 31.1792 138.213 33.3471 137.033 35.2556C135.861 37.1556 134.27 38.6288 132.262 39.6751C130.261 40.7255 128.047 41.2152 125.616 41.1482C127.779 43.8393 129.843 47.1204 131.81 50.9917C133.785 54.8671 135.396 58.7384 136.648 62.6096C138.221 67.5313 140.054 70.486 142.155 71.4654V71.7667H125.415L125.331 71.4654C127.616 70.4191 128.269 67.8285 127.29 63.6977C126.507 60.3496 125.373 56.9094 123.891 53.3688C122.418 49.8198 120.694 46.5219 118.719 43.4752C116.751 40.42 114.558 38.0345 112.139 36.327V60.1487C112.139 63.8233 112.445 66.4934 113.06 68.1675C113.684 69.8415 114.784 70.9422 116.358 71.4654V71.7667H99.0316V71.4654ZM112.139 23.035C112.139 25.5251 112.612 27.739 113.562 29.681C114.508 31.6145 115.772 33.1211 117.346 34.2009C118.919 35.2849 120.56 35.8247 122.267 35.8247C124.498 35.8247 126.189 35.1719 127.34 33.8661C128.487 32.552 129.064 31.0369 129.064 29.3294C129.064 26.9774 128.093 25.0103 126.151 23.4367C124.218 21.8547 121.715 21.0596 118.635 21.0596H112.139V23.035Z" fill="#F65135"/>
<path d="M142.544 71.4654C144.118 70.9422 145.215 69.8415 145.842 68.1675C146.466 66.4934 146.78 63.8233 146.78 60.1487V27.2703C146.78 23.5874 146.466 20.9173 145.842 19.2516C145.215 17.5775 144.118 16.4727 142.544 15.937V15.6524H159.871C167.157 15.6524 172.82 17.9877 176.863 22.6499C180.901 27.3038 182.923 33.8326 182.923 42.2364C182.923 48.2755 181.885 53.5111 179.809 57.939C177.741 62.3711 174.808 65.7861 171.003 68.1842C167.195 70.5739 162.667 71.7667 157.41 71.7667H142.544V71.4654ZM155.652 65.8573H156.925C161.98 65.8573 166.048 63.7438 169.128 59.5126C172.217 55.2731 173.766 49.5771 173.766 42.4205C173.766 35.9252 172.334 30.8277 169.48 27.1196C166.622 23.4158 162.834 21.5618 158.113 21.5618H155.652V65.8573Z" fill="#F65135"/>
<path d="M181.232 71.4654C182.551 71.0092 183.597 70.1094 184.38 68.7702C185.171 67.4225 185.995 65.0705 186.857 61.7224L195.713 27.7558C196.692 24.0185 197.136 21.2354 197.036 19.4023C196.935 17.5608 196.324 16.4057 195.211 15.937V15.6524H209.591L221.996 61.7224C222.787 64.8696 223.59 67.1547 224.406 68.5693C225.231 69.9755 226.298 70.9422 227.604 71.4654V71.7667H210.579V71.4654C211.951 70.9422 212.797 69.8164 213.123 68.0838C213.458 66.3428 213.165 63.6978 212.253 60.1488L211.667 57.9893H194.926L194.424 60.1488C193.574 63.6308 193.277 66.2423 193.537 67.9834C193.805 69.716 194.658 70.8753 196.098 71.4654V71.7667H181.232V71.4654ZM196.399 52.0798H210.177L202.895 25.3954L196.399 52.0798ZM200.233 12.6893L204.669 0H212.738V0.987692L203.481 12.6893H200.233Z" fill="#F65135"/>
<path d="M227.011 71.4654C228.584 70.9422 229.681 69.8415 230.309 68.1675C230.932 66.4934 231.246 63.8233 231.246 60.1487V27.2703C231.246 23.5874 230.932 20.9173 230.309 19.2516C229.681 17.5775 228.584 16.4727 227.011 15.937V15.6524H251.435C256.223 15.6524 260.061 16.9372 262.953 19.5027C265.84 22.0598 267.289 25.4707 267.289 29.7312C267.289 33.7949 265.924 37.1933 263.204 39.9262C260.479 42.6507 256.981 44.0109 252.707 44.0109C250.083 44.0109 247.69 43.471 245.526 42.387C243.358 41.2947 241.558 39.8006 240.119 37.9006V60.1487C240.119 63.8233 240.424 66.4934 241.039 68.1675C241.663 69.8415 242.764 70.9422 244.337 71.4654V71.7667H227.011V71.4654ZM240.119 27.7558C240.508 30.7147 241.567 33.1128 243.299 34.9542C245.04 36.7873 247.225 37.6997 249.862 37.6997C252.348 37.6997 254.298 36.9129 255.704 35.3393C257.119 33.7656 257.83 31.8656 257.83 29.6307C257.83 27.0778 256.876 25.0103 254.967 23.4367C253.067 21.8547 250.581 21.0596 247.501 21.0596H240.119V27.7558Z" fill="#F65135"/>
<path d="M269.539 71.4654C271.112 70.9422 272.209 69.8415 272.837 68.1675C273.46 66.4934 273.774 63.8233 273.774 60.1487V27.2703C273.774 23.5874 273.46 20.9173 272.837 19.2516C272.209 17.5775 271.112 16.4727 269.539 15.937V15.6524H286.865V15.937C285.292 16.4727 284.191 17.5775 283.567 19.2516C282.952 20.9173 282.647 23.5874 282.647 27.2703V60.1487C282.647 63.8233 282.952 66.4934 283.567 68.1675C284.191 69.8415 285.292 70.9422 286.865 71.4654V71.7667H269.539V71.4654Z" fill="#F65135"/>
<path d="M313.259 66.6441C315.155 66.6441 316.695 65.9075 317.88 64.4344C319.06 62.9612 319.931 60.9942 320.491 58.5249C321.048 56.0599 321.328 53.3521 321.328 50.4058C321.328 47.1246 320.998 43.743 320.341 40.261C319.679 36.779 318.742 33.5648 317.528 30.6185C316.323 27.6638 314.867 25.2866 313.159 23.487C311.451 21.679 309.547 20.775 307.45 20.775C305.542 20.775 303.977 21.5116 302.763 22.9848C301.558 24.4579 300.675 26.4124 300.118 28.844C299.557 31.2672 299.281 33.9582 299.281 36.9129C299.281 40.261 299.603 43.6761 300.252 47.1581C300.909 50.6318 301.847 53.846 303.064 56.8007C304.278 59.7596 305.76 62.1409 307.501 63.9489C309.242 65.7485 311.159 66.6441 313.259 66.6441ZM290.609 42.7219C290.609 33.9289 292.351 27.0695 295.833 22.1477C299.315 17.226 304.136 14.7652 310.296 14.7652C314.235 14.7652 317.679 15.983 320.625 18.4146C323.58 20.8378 325.882 24.2152 327.522 28.5426C329.171 32.8742 330 37.9299 330 43.7096C330 49.4265 329.171 54.4654 327.522 58.8263C325.882 63.1914 323.58 66.5897 320.625 69.0213C317.679 71.4445 314.235 72.654 310.296 72.654C306.3 72.654 302.822 71.4277 299.867 68.971C296.908 66.506 294.627 63.024 293.02 58.5249C291.413 54.0301 290.609 48.761 290.609 42.7219Z" fill="#F65135"/>
</svg>
