<svg width="330" height="84" viewBox="0 0 330 84" fill="none" xmlns="http://www.w3.org/2000/svg">
<g clip-path="url(#clip0_2160_126)">
<path d="M44.9954 83.111C38.6059 83.111 32.6671 81.9328 27.187 79.5841C21.703 77.2316 16.9306 73.9459 12.8739 69.731C8.81325 65.5162 5.65013 60.5698 3.38454 54.896C1.12686 49.2261 0 43.0461 0 36.3601C0 29.4763 1.32851 23.2924 3.98553 17.8084C6.65046 12.3283 10.5253 7.98688 15.61 4.79213C20.6908 1.59738 26.7956 0 33.9245 0C36.0952 0 38.4517 0.23328 40.9941 0.695887C43.5325 1.16245 45.9641 1.93741 48.2851 3.02078C50.6139 4.1081 52.5078 5.56709 53.9629 7.40171C55.4179 9.22841 56.1454 11.5059 56.1454 14.234C56.1454 16.3968 55.6789 18.2512 54.7536 19.8011C53.8245 21.3511 52.6185 22.6559 51.1319 23.7076C46.4188 27.1238 42.3423 30.5834 38.9064 34.0826C35.4665 37.5858 32.8174 40.8834 30.9511 43.9832C29.0928 47.0831 28.1676 49.8429 28.1676 52.2548C28.1676 52.9309 28.3495 53.5951 28.7211 54.2475C29.1007 54.9039 29.6899 55.2281 30.4925 55.2281C31.1765 55.2281 31.7182 54.9355 32.1215 54.3424C32.5208 53.7533 32.7541 53.1484 32.8174 52.5236C33.0586 53.2749 33.2602 54.038 33.4184 54.8169C33.5765 55.5879 33.6556 56.3747 33.6556 57.1734C33.6556 58.9131 33.1416 60.5896 32.1215 62.2028C31.0974 63.816 29.595 64.6226 27.6141 64.6226C25.9376 64.6226 24.5854 63.8951 23.5653 62.44C22.5412 60.9771 22.0311 59.099 22.0311 56.8097C22.0311 53.089 23.0671 49.4475 25.1468 45.8811C27.2226 42.3186 29.8678 38.9143 33.0863 35.6642C36.3126 32.4062 39.6893 29.4447 43.2241 26.7758C42.3582 26.9024 41.5041 27.0131 40.6619 27.108C39.8277 27.2028 38.9776 27.2503 38.1156 27.2503C36.6922 27.2503 35.0474 27.1 33.1811 26.7916C31.3228 26.4753 29.5119 25.9495 27.7406 25.2101C25.9771 24.4628 24.5221 23.4704 23.3755 22.2367C22.2367 20.9952 21.6674 19.4058 21.6674 17.4762C21.6674 15.3807 22.4344 13.8189 23.9765 12.7948C25.5264 11.7747 27.2661 11.2607 29.1956 11.2607C30.7455 11.2607 32.2322 11.6205 33.6556 12.3362C35.079 13.0439 35.941 14.2301 36.2494 15.8947C35.5733 15.4005 34.8616 15.1514 34.1143 15.1514C33.2484 15.1514 32.5208 15.4163 31.9317 15.9421C31.3386 16.472 31.046 17.1718 31.046 18.0456C31.046 19.216 31.4454 20.1609 32.248 20.8766C33.0586 21.5962 34.0391 22.1063 35.1897 22.4107C36.3364 22.7191 37.3762 22.8694 38.3054 22.8694C40.8438 22.8694 42.9631 22.0944 44.6633 20.5445C46.3714 18.9945 47.2254 16.9227 47.2254 14.3289C47.2254 12.095 46.5374 10.2643 45.1694 8.84093C43.8092 7.41752 42.1367 6.34997 40.1558 5.63036C38.171 4.9147 36.2217 4.5549 34.3041 4.5549C29.9587 4.5549 26.2697 5.56314 23.2331 7.57568C20.1965 9.59217 17.7491 12.2255 15.8947 15.4835C14.0364 18.7415 12.6881 22.2802 11.8459 26.0958C11.0116 29.9034 10.5965 33.6319 10.5965 37.2774C10.5965 43.2992 11.4268 48.8979 13.0953 54.0736C14.7718 59.2413 17.0967 63.7448 20.07 67.5801C23.0513 71.4272 26.5584 74.4204 30.5874 76.5634C34.6125 78.7024 38.9855 79.7739 43.6985 79.7739C44.3074 79.7739 45.1417 79.7423 46.1974 79.679C47.2491 79.6158 48.3365 79.4576 49.4554 79.2046C50.5704 78.9594 51.5154 78.5759 52.2864 78.05C53.0653 77.5202 53.4568 76.8243 53.4568 75.9624C53.4568 75.4642 53.2512 75.0609 52.84 74.7446C52.4367 74.4362 51.9899 74.2859 51.4956 74.2859C50.9974 74.2859 50.5348 74.4045 50.1039 74.6497C50.8511 73.2895 51.9385 72.218 53.3619 71.4391C54.7853 70.6681 56.2719 70.2846 57.8219 70.2846C59.1267 70.2846 60.3207 70.6523 61.3962 71.3917C62.4796 72.139 63.0252 73.2263 63.0252 74.6497C63.0252 76.4527 62.3293 77.9077 60.9375 79.0148C59.5458 80.1298 57.8416 80.9838 55.8291 81.5769C53.8126 82.166 51.8119 82.5654 49.8192 82.7789C47.8343 83.0003 46.229 83.111 44.9954 83.111Z" fill="#F65135"/>
<path d="M56.8848 67.0266C58.3714 66.5323 59.4074 65.5003 60.0004 63.9267C60.5896 62.3451 60.8861 59.8146 60.8861 56.3352V25.2892C60.8861 21.8216 60.5896 19.295 60.0004 17.7135C59.4074 16.1319 58.3714 15.096 56.8848 14.5978V14.3289H73.2539V14.5978C71.7673 15.096 70.7274 16.1319 70.1382 17.7135C69.5452 19.295 69.2526 21.8216 69.2526 25.2892V28.0727H85.2422V25.2892C85.2422 21.8216 84.9456 19.295 84.3565 17.7135C83.7634 16.1319 82.7275 15.096 81.2408 14.5978V14.3289H97.61V14.5978C96.1233 15.096 95.0834 16.1319 94.4943 17.7135C93.9012 19.295 93.6086 21.8216 93.6086 25.2892V56.3352C93.6086 59.8146 93.9012 62.3451 94.4943 63.9267C95.0834 65.5003 96.1233 66.5323 97.61 67.0266V67.3112H81.2408V67.0266C82.7275 66.5323 83.7634 65.5003 84.3565 63.9267C84.9456 62.3451 85.2422 59.8146 85.2422 56.3352V38.7641H69.2526V56.3352C69.2526 59.8146 69.5452 62.3451 70.1382 63.9267C70.7274 65.5003 71.7673 66.5323 73.2539 67.0266V67.3112H56.8848V67.0266ZM69.2526 36.9136H85.2422V34.5887H69.2526V36.9136Z" fill="#F65135"/>
<path d="M100.203 67.0265C101.689 66.5323 102.725 65.5003 103.318 63.9266C103.907 62.3451 104.204 59.8146 104.204 56.3351V25.2891C104.204 21.8215 103.907 19.295 103.318 17.7134C102.725 16.1319 101.689 15.0959 100.203 14.5977V14.3289H129.208C129.892 14.3289 130.636 14.2656 131.438 14.1391C132.249 14.0126 132.775 13.8307 133.02 13.5855L128.101 23.6126L127.817 23.5178C128.121 20.924 126.322 19.6271 122.424 19.6271H112.57V33.5607H112.76C113.432 32.327 114.33 31.3425 115.449 30.6031C116.564 29.8559 117.805 29.4802 119.166 29.4802C120.842 29.4802 122.424 29.8559 123.91 30.6031C125.397 31.3425 126.915 31.7102 128.465 31.7102C130.015 31.7102 131.162 31.1211 131.913 29.9389L132.182 30.0338C131.747 31.7735 130.837 33.4658 129.446 35.1106C128.054 36.7475 126.366 37.562 124.385 37.562C123.329 37.562 122.305 37.3485 121.316 36.9136C120.324 36.4826 119.316 36.0516 118.296 35.6167C117.272 35.1739 116.2 34.9524 115.085 34.9524C114.093 34.9524 113.254 35.2964 112.57 35.9805V61.7283H121.965C124.567 61.7283 126.903 61.0798 128.971 59.7829C131.047 58.4782 132.522 56.7424 133.4 54.5796L133.763 54.6745L131.264 68.3392C130.822 67.6512 129.92 67.3112 128.56 67.3112H100.203V67.0265Z" fill="#F65135"/>
<path d="M156.348 68.2443C150.275 68.2443 145.502 65.8482 142.035 61.0482C138.563 56.2402 136.832 49.653 136.832 41.2787C136.832 32.3587 138.563 25.5026 142.035 20.7026C145.502 15.8946 150.465 13.4907 156.917 13.4907C159.638 13.4907 161.741 13.7872 163.228 14.3763C164.714 14.9576 165.956 15.2462 166.96 15.2462C167.506 15.2462 167.972 15.0643 168.352 14.6926L169.095 29.5751L168.811 29.6542C167.628 26.2499 166.126 23.6522 164.303 21.8571C162.477 20.0541 160.294 19.1526 157.756 19.1526C154.031 19.1526 151.117 21.1098 149.01 25.0202C146.898 28.9227 145.846 34.3435 145.846 41.2787C145.846 47.4784 146.989 52.488 149.278 56.3035C151.576 60.1111 154.585 62.0129 158.309 62.0129C160.784 62.0129 162.983 61.1905 164.904 59.5457C166.822 57.9009 168.186 55.6551 169 52.8083H169.554L170.392 61.5543C166.984 66.0143 162.303 68.2443 156.348 68.2443Z" fill="#F65135"/>
<path d="M172.988 67.0266C174.475 66.5323 175.511 65.5003 176.104 63.9267C176.693 62.3451 176.99 59.8146 176.99 56.3352V25.2892C176.99 21.8216 176.693 19.295 176.104 17.7135C175.511 16.1319 174.475 15.096 172.988 14.5978V14.3289H189.357V14.5978C187.871 15.096 186.831 16.1319 186.242 17.7135C185.649 19.295 185.356 21.8216 185.356 25.2892V35.1423L192.979 25.2892C195.707 21.8216 197.226 19.295 197.534 17.7135C197.839 16.1319 197.471 15.096 196.427 14.5978V14.3289H211.294V14.5978C210.048 15.1593 208.732 16.1082 207.34 17.4446C205.948 18.7731 204.351 20.6156 202.548 22.9643L197.819 29.2905L207.767 56.3352C208.819 58.9408 209.7 60.9771 210.408 62.44C211.124 63.8951 211.82 64.9508 212.496 65.6031C213.18 66.2476 213.986 66.7221 214.915 67.0266V67.3112H197.914V67.0266C199.211 66.5323 199.946 65.5003 200.128 63.9267C200.318 62.3451 199.796 59.8146 198.562 56.3352L191.303 36.2652L185.356 44.4419V56.3352C185.356 59.8146 185.649 62.3451 186.242 63.9267C186.831 65.5003 187.871 66.5323 189.357 67.0266V67.3112H172.988V67.0266Z" fill="#F65135"/>
<path d="M234.439 62.4716C236.23 62.4716 237.685 61.7757 238.804 60.3839C239.919 58.9922 240.741 57.1378 241.271 54.8168C241.797 52.488 242.062 49.9259 242.062 47.1305C242.062 44.0425 241.75 40.8596 241.129 37.5778C240.504 34.2882 239.618 31.2476 238.472 28.4522C237.333 25.6608 235.957 23.4149 234.344 21.7148C232.731 20.0067 230.932 19.1526 228.951 19.1526C227.156 19.1526 225.685 19.8564 224.538 21.2561C223.388 22.6479 222.549 24.4944 222.024 26.7916C221.494 29.0809 221.233 31.6153 221.233 34.3989C221.233 37.562 221.541 40.7884 222.166 44.078C222.787 47.3598 223.668 50.3964 224.807 53.1878C225.954 55.9714 227.353 58.2172 228.998 59.9253C230.643 61.6255 232.454 62.4716 234.439 62.4716ZM213.056 39.8869C213.056 31.5798 214.693 25.1072 217.975 20.4653C221.264 15.8155 225.823 13.4907 231.655 13.4907C235.364 13.4907 238.614 14.6412 241.398 16.9385C244.189 19.2278 246.364 22.4186 247.914 26.5069C249.464 30.5992 250.239 35.3716 250.239 40.82C250.239 46.2092 249.464 50.9657 247.914 55.0857C246.364 59.2096 244.189 62.4202 241.398 64.7174C238.614 67.0067 235.364 68.1494 231.655 68.1494C227.867 68.1494 224.578 66.9909 221.786 64.67C219.003 62.3411 216.852 59.0554 215.334 54.8168C213.815 50.5704 213.056 45.5924 213.056 39.8869Z" fill="#F65135"/>
<path d="M273.759 68.2444C269.172 68.2444 265.187 67.0542 261.802 64.67C258.426 62.2779 256.243 59.1939 255.255 55.4179C256.129 55.0383 256.654 54.3859 256.836 53.4568C257.026 52.5315 257.153 51.6656 257.216 50.863L258.054 24.356C258.117 23.2489 258.07 22.0153 257.912 20.6552C257.754 19.2871 257.394 18.0417 256.836 16.9227C256.275 15.8077 255.35 15.0327 254.053 14.5978V14.3289H270.406V14.5978C269.109 15.0327 268.18 15.8077 267.623 16.9227C267.061 18.0417 266.737 19.2871 266.642 20.6552C266.555 22.0153 266.484 23.2489 266.421 24.356L265.582 52.1599C265.519 55.3863 266.247 57.9444 267.765 59.8305C269.283 61.7204 271.434 62.6614 274.218 62.6614C277.009 62.6614 279.2 61.7362 280.781 59.8779C282.363 58.0117 283.09 55.4733 282.964 52.2548L282.125 24.356C282.125 23.2489 282.062 22.0153 281.936 20.6552C281.817 19.2871 281.481 18.0417 280.923 16.9227C280.362 15.8077 279.429 15.0327 278.124 14.5978V14.3289H293.37V14.5978C292.073 15.0327 291.144 15.8077 290.587 16.9227C290.025 18.0417 289.685 19.2871 289.559 20.6552C289.44 22.0153 289.385 23.2489 289.385 24.356L290.207 51.3217C290.27 52.1243 290.421 52.9151 290.666 53.694C290.919 54.465 291.417 55.0383 292.168 55.4179C291.176 59.2571 289.005 62.357 285.652 64.7175C282.307 67.07 278.346 68.2444 273.759 68.2444Z" fill="#F65135"/>
<path d="M304.996 67.0265C306.482 66.5323 307.518 65.5003 308.111 63.9266C308.7 62.3451 308.997 59.8146 308.997 56.3351V19.896H305.644C303.596 19.896 301.753 20.5681 300.109 21.9046C298.464 23.2331 297.301 25.044 296.629 27.3293L296.25 27.2502L297.926 13.5855C298.179 13.8307 298.657 14.0126 299.365 14.1391C300.081 14.2656 300.872 14.3289 301.738 14.3289H324.512C325.374 14.3289 326.165 14.2656 326.884 14.1391C327.6 14.0126 328.078 13.8307 328.324 13.5855L330 27.2502L329.62 27.3293C328.944 25.044 327.786 23.2331 326.141 21.9046C324.496 20.5681 322.65 19.896 320.606 19.896H317.363V56.3351C317.363 59.8146 317.652 62.3451 318.233 63.9266C318.822 65.5003 319.862 66.5323 321.349 67.0265V67.3112H304.996V67.0265Z" fill="#F65135"/>
</g>
<defs>
<clipPath id="clip0_2160_126">
<rect width="330" height="83.111" fill="white"/>
</clipPath>
</defs>
</svg>
