<svg width="600" height="202" viewBox="0 0 600 202" fill="none" xmlns="http://www.w3.org/2000/svg">
<path d="M42.6631 67.8372C40.1886 67.8372 38.2413 67.0279 36.8127 65.4008C35.3842 63.7779 34.6699 61.7632 34.6699 59.3523C34.6699 56.243 35.4012 53.4999 36.8637 51.1231C38.3263 48.7506 40.2864 46.7188 42.7481 45.0236C45.2183 43.3326 47.9097 41.9525 50.8263 40.8834C53.7515 39.8057 56.7022 39.0263 59.6869 38.5492C62.6673 38.0636 65.3927 37.8166 67.8671 37.8166C71.3705 37.8166 74.8399 38.1573 78.2753 38.8389C81.7192 39.5204 85.1631 40.2871 88.5984 41.139C92.0338 41.9823 95.4862 42.7405 98.9556 43.422C102.433 44.1035 105.954 44.4443 109.517 44.4443C110.299 44.4443 111.239 44.3506 112.34 44.1546C113.45 43.9502 114.44 43.5754 115.316 43.0301C116.188 42.4764 116.626 41.6799 116.626 40.6449C116.626 40.3169 116.545 40.0059 116.388 39.7078C116.226 39.4139 115.95 39.2648 115.554 39.2648C115.167 39.2648 114.861 39.4139 114.636 39.7078C114.406 40.0059 114.228 40.3169 114.092 40.6449V40.3382L114.007 39.7589C114.007 38.5918 114.347 37.5056 115.027 36.5047C115.707 35.4952 116.694 34.9883 117.986 34.9883C118.892 34.9883 119.555 35.2865 119.976 35.8743C120.405 36.4536 120.622 37.1649 120.622 38.004C120.622 40.3467 119.81 42.3146 118.19 43.9161C116.566 45.5091 114.538 46.7912 112.102 47.7667C109.661 48.7335 107.208 49.4449 104.738 49.8964C102.276 50.3521 100.206 50.5779 98.5304 50.5779C96.7022 50.5779 94.7974 50.4671 92.8161 50.2371C90.8433 50.0114 88.9811 49.6067 87.2379 49.0274C86.9063 50.3223 86.158 51.3276 84.993 52.0431C83.8238 52.7587 82.595 53.1165 81.3025 53.1165C79.283 53.1165 77.3995 52.435 75.6563 51.072H76.1325C76.9828 51.072 77.6631 50.7312 78.1733 50.0497C78.692 49.3682 78.9556 48.6356 78.9556 47.8518C78.9556 46.6166 78.5177 45.6114 77.6461 44.8362C76.7702 44.0524 75.6818 43.4518 74.3808 43.0301C73.0882 42.6127 71.7702 42.3231 70.4352 42.1612C69.1086 41.9908 67.9904 41.9057 67.0848 41.9057C65.1333 41.9057 62.9734 42.1868 60.6052 42.7405C58.2455 43.2857 55.9794 44.1333 53.8025 45.2791C51.6256 46.4164 49.8399 47.8646 48.4454 49.6238C47.0508 51.3744 46.3535 53.4828 46.3535 55.9448C46.3535 56.9245 46.6129 57.7849 47.1359 58.5345C47.6546 59.2842 48.4326 59.659 49.4658 59.659C50.3161 59.659 51.0474 59.4162 51.6597 58.9264C52.2719 58.4408 52.7736 57.8701 53.1733 57.2226C53.0372 60.0765 51.9913 62.5555 50.044 64.6681C48.1052 66.7808 45.6435 67.8372 42.6631 67.8372ZM22.2209 83.8357C22.2209 82.0765 22.8842 80.7603 24.2107 79.8829C25.5372 79.0097 27.0168 78.571 28.6495 78.571C30.0653 78.571 31.4216 78.8691 32.7141 79.4569C34.0151 80.0362 35.1886 80.7476 36.2345 81.5867C35.4522 81.395 34.6529 81.4291 33.8365 81.6889C33.0287 81.953 32.6291 82.6004 32.6291 83.6312C32.6291 84.5512 33.0202 85.2583 33.8025 85.7439C34.5848 86.2209 35.4564 86.5276 36.4216 86.6639C37.3952 86.7917 38.2073 86.8513 38.8535 86.8513C42.1614 86.8513 45.7966 86.0932 49.7549 84.5683C53.7217 83.0349 57.6843 81.1011 61.6427 78.7584V68.9105C61.6427 64.8811 61.5279 61.7462 61.3025 59.5057C61.0729 57.2695 60.6478 55.6168 60.027 54.5477C59.4148 53.4701 58.5219 52.7332 57.3569 52.3328V52.0431C58.6495 51.9196 60.2694 51.515 62.2209 50.8335C64.1682 50.1519 66.0687 49.2915 67.9182 48.2437C69.7634 47.2001 71.141 46.1949 72.0508 45.228L72.3399 45.4154C71.953 46.0629 71.6767 47.0425 71.5066 48.3459C71.345 49.6408 71.2345 51.0379 71.1665 52.5372C71.1069 54.028 71.0814 55.3911 71.0814 56.6263V72.6248C74.5168 70.2182 77.7226 67.7988 80.7073 65.3667C83.7005 62.926 86.2345 60.6941 88.3093 58.6708L88.5984 58.8753C87.9522 60.0466 87.3144 61.7675 86.6937 64.0377C86.0814 66.3123 85.5457 68.7998 85.095 71.5003C84.6401 74.1923 84.266 76.7266 83.9726 79.0991C83.675 81.4759 83.5304 83.3416 83.5304 84.7046C83.5304 85.2285 83.5644 85.9952 83.6325 87.0047C83.7005 88.0184 83.9088 88.9427 84.2617 89.7818C84.6231 90.6252 85.1886 91.0426 85.9624 91.0426C86.8808 91.0426 87.3399 90.5613 87.3399 89.5944C87.3399 89.39 87.2719 89.0961 87.1359 88.7085C87.9734 88.9725 88.6877 89.4581 89.2787 90.1737C89.8654 90.8893 90.1631 91.7029 90.1631 92.6101C90.1631 93.5216 89.8484 94.2543 89.2277 94.808C88.6154 95.3532 87.8544 95.6258 86.9488 95.6258C85.1205 95.6258 83.658 94.8506 82.561 93.2916C81.4598 91.7369 80.6308 89.8244 80.078 87.5499C79.5338 85.2668 79.1767 83.0264 79.0066 80.82C78.845 78.605 78.7685 76.88 78.7685 75.6405C78.7685 74.6651 78.794 73.6769 78.8535 72.6759C78.9216 71.6664 79.0236 70.6399 79.1597 69.5921C77.9224 70.6399 76.6342 71.7005 75.2991 72.7781C73.9726 73.8472 72.5653 74.9334 71.0814 76.0323V97.2955C71.0814 102.692 71.5491 106.832 72.493 109.716C73.4326 112.612 74.908 114.58 76.9148 115.628L75.8433 117.86C73.5729 117.017 71.2387 116.757 68.8365 117.076C68.9046 116.369 68.709 115.756 68.2583 115.236C67.8034 114.712 67.1869 114.453 66.4046 114.453C64.7804 114.453 63.9726 115.326 63.9726 117.076C63.9726 117.473 64.0661 117.83 64.2617 118.15C61.6639 119.002 58.9896 119.977 56.2345 121.08C53.4794 122.179 50.5075 122.733 47.3229 122.733C44.3382 122.733 42.1784 122.111 40.8433 120.876C39.5168 119.649 38.8535 118.32 38.8535 116.889C38.8535 115.786 39.2107 114.879 39.925 114.163C40.6393 113.447 41.5151 113.09 42.561 113.09C43.6027 113.09 44.4658 113.413 45.1461 114.061C45.8263 114.708 46.1665 115.551 46.1665 116.599C46.1665 117.179 46.0006 117.86 45.6733 118.644C46.0559 118.767 46.4428 118.848 46.8297 118.882C47.2251 118.916 47.5865 118.933 47.9182 118.933C52.1359 118.933 55.4734 117.255 57.9352 113.907C60.4054 110.568 61.6427 106.07 61.6427 100.413V82.4726C57.3569 85.1305 52.9394 87.3753 48.3944 89.2026C43.8578 91.0213 39.4828 91.9286 35.2651 91.9286C33.641 91.9286 31.8212 91.6858 29.8059 91.196C27.7991 90.7104 26.0304 89.8798 24.4998 88.7085C22.9777 87.5414 22.2209 85.9143 22.2209 83.8357Z" fill="#F65135"/>
<path d="M94.1472 108.506C95.699 107.987 96.7832 106.896 97.3955 105.235C98.0162 103.578 98.3308 100.933 98.3308 97.2955V64.7192C98.3308 61.0859 98.0162 58.4408 97.3955 56.7796C96.7832 55.1227 95.699 54.0323 94.1472 53.5084V53.2187H117.804C122.54 53.2187 126.333 54.4582 129.181 56.933C132.038 59.3992 133.467 62.483 133.467 66.1845C133.467 68.5953 132.88 70.7421 131.715 72.6248C130.546 74.5117 128.969 75.977 126.987 77.0205C125.015 78.0556 122.825 78.5369 120.423 78.4687C122.566 81.1394 124.611 84.3936 126.562 88.2314C128.509 92.0606 130.1 95.8941 131.324 99.7319C132.889 104.605 134.708 107.531 136.783 108.506V108.796H120.236L120.134 108.506C122.4 107.463 123.05 104.894 122.089 100.805C121.307 97.4914 120.185 94.0754 118.722 90.5656C117.259 87.0558 115.55 83.793 113.603 80.7688C111.664 77.7489 109.492 75.3934 107.089 73.6982V97.2955C107.089 100.933 107.395 103.578 108.008 105.235C108.628 106.896 109.717 107.987 111.273 108.506V108.796H94.1472V108.506ZM107.089 60.5279C107.089 63.0069 107.557 65.2048 108.501 67.1216C109.441 69.0298 110.686 70.5249 112.242 71.6025C113.807 72.6716 115.431 73.2041 117.123 73.2041C119.321 73.2041 120.988 72.5566 122.123 71.2618C123.267 69.9584 123.841 68.459 123.841 66.7638C123.841 64.4253 122.88 62.4788 120.967 60.9198C119.049 59.3651 116.566 58.5856 113.518 58.5856H107.089V60.5279Z" fill="#F65135"/>
<path d="M158.105 109.767C153.296 109.767 149.125 108.519 145.588 106.019C142.05 103.523 139.763 100.286 138.734 96.3073C139.64 95.9239 140.188 95.2424 140.384 94.2628C140.575 93.2873 140.707 92.3801 140.775 91.5367L141.642 63.7481C141.71 62.581 141.659 61.2776 141.489 59.8464C141.328 58.4153 140.954 57.1161 140.367 55.9448C139.789 54.7777 138.819 53.9641 137.459 53.5084V53.2187H154.601V53.5084C153.228 53.9641 152.246 54.7777 151.659 55.9448C151.081 57.1161 150.741 58.4153 150.639 59.8464C150.545 61.2776 150.469 62.581 150.401 63.7481L149.533 92.8997C149.465 96.286 150.222 98.9737 151.812 100.959C153.411 102.935 155.664 103.923 158.581 103.923C161.506 103.923 163.794 102.948 165.452 100.993C167.106 99.0419 167.867 96.3754 167.731 93.002L166.863 63.7481C166.863 62.581 166.795 61.2776 166.659 59.8464C166.532 58.4153 166.175 57.1161 165.588 55.9448C165.01 54.7777 164.04 53.9641 162.68 53.5084V53.2187H178.632V53.5084C177.272 53.9641 176.294 54.7777 175.707 55.9448C175.129 57.1161 174.772 58.4153 174.635 59.8464C174.508 61.2776 174.448 62.581 174.448 63.7481L175.333 92.0308C175.388 92.8742 175.545 93.7005 175.809 94.5183C176.068 95.3276 176.591 95.9239 177.374 96.3073C176.328 100.341 174.057 103.595 170.554 106.07C167.05 108.536 162.901 109.767 158.105 109.767Z" fill="#F65135"/>
<path d="M190.802 108.506C192.353 107.987 193.438 106.896 194.05 105.235C194.671 103.578 194.985 100.933 194.985 97.2955V59.0627H191.482C189.339 59.0627 187.404 59.7613 185.682 61.1584C183.969 62.5555 182.757 64.4594 182.043 66.866L181.652 66.7638L183.404 52.435C183.663 52.6991 184.169 52.895 184.917 53.0313C185.665 53.1591 186.49 53.2188 187.4 53.2188H211.244C212.149 53.2188 212.978 53.1591 213.727 53.0313C214.475 52.895 214.977 52.6991 215.24 52.435L216.992 66.7638L216.601 66.866C215.887 64.4594 214.666 62.5555 212.944 61.1584C211.218 59.7613 209.292 59.0627 207.162 59.0627H203.744V97.2955C203.744 100.933 204.05 103.578 204.662 105.235C205.283 106.896 206.371 107.987 207.927 108.506V108.796H190.802V108.506Z" fill="#F65135"/>
<path d="M242.591 103.719C244.47 103.719 245.996 102.995 247.166 101.538C248.331 100.073 249.189 98.1261 249.734 95.6939C250.286 93.2533 250.567 90.5656 250.567 87.6351C250.567 84.3894 250.235 81.0414 249.581 77.5998C248.934 74.1497 248.007 70.9636 246.808 68.0416C245.618 65.1111 244.177 62.7556 242.489 60.9709C240.796 59.1777 238.917 58.279 236.842 58.279C234.959 58.279 233.416 59.0116 232.217 60.4768C231.013 61.9421 230.133 63.8801 229.581 66.2867C229.036 68.6976 228.764 71.3597 228.764 74.2774C228.764 77.5956 229.087 80.9818 229.734 84.432C230.38 87.8736 231.302 91.0597 232.506 93.9902C233.705 96.9121 235.167 99.2634 236.893 101.044C238.615 102.829 240.516 103.719 242.591 103.719ZM220.193 80.0362C220.193 71.3257 221.91 64.5318 225.346 59.659C228.79 54.7777 233.564 52.3328 239.666 52.3328C243.552 52.3328 246.953 53.5382 249.87 55.9448C252.795 58.3556 255.065 61.7036 256.689 65.9971C258.322 70.2821 259.138 75.2827 259.138 81.0074C259.138 86.6639 258.322 91.656 256.689 95.9836C255.065 100.303 252.795 103.663 249.87 106.07C246.953 108.481 243.552 109.682 239.666 109.682C235.707 109.682 232.268 108.464 229.342 106.019C226.426 103.578 224.172 100.132 222.574 95.6769C220.984 91.2258 220.193 86.0122 220.193 80.0362Z" fill="#F65135"/>
<path d="M279.666 109.682C276.546 109.682 273.514 109.06 270.568 107.825C267.617 106.59 265.168 104.737 263.221 102.271L266.826 89.1003H267.115C267.498 92.2821 268.408 94.9187 269.837 97.0059C271.265 99.0845 272.949 100.631 274.888 101.64C276.835 102.641 278.752 103.139 280.636 103.139C282.847 103.139 284.743 102.475 286.333 101.146C287.919 99.8086 288.714 97.8705 288.714 95.3362C288.714 93.1894 288.127 91.3749 286.962 89.8841C285.793 88.3847 284.284 87.0345 282.439 85.8291C280.589 84.6279 278.646 83.4395 276.605 82.2682C274.564 81.1011 272.613 79.8062 270.755 78.3836C268.905 76.9524 267.396 75.2614 266.231 73.3063C265.062 71.3555 264.479 69.0128 264.479 66.2867C264.479 62.121 265.874 58.7518 268.663 56.1833C271.461 53.6191 275.13 52.3328 279.666 52.3328C282.524 52.3328 284.922 52.7076 286.86 53.4573C288.808 54.2069 290.304 54.5818 291.35 54.5818C291.869 54.5818 292.26 54.4199 292.524 54.0877L293 67.5475L292.609 67.6497C291.575 64.8556 289.922 62.5682 287.643 60.7835C285.372 58.9903 282.94 58.0916 280.347 58.0916C278.408 58.0916 276.724 58.6495 275.296 59.7613C273.867 60.8645 273.153 62.5512 273.153 64.8215C273.153 66.7766 273.735 68.4505 274.905 69.8476C276.069 71.2447 277.562 72.514 279.377 73.647C281.189 74.7843 283.136 75.9386 285.211 77.1057C287.294 78.2771 289.246 79.5932 291.061 81.0585C292.872 82.5237 294.365 84.2531 295.534 86.238C296.699 88.2144 297.285 90.6295 297.285 93.479C297.285 97.1251 296.439 100.154 294.751 102.56C293.059 104.958 290.865 106.747 288.17 107.927C285.483 109.094 282.647 109.682 279.666 109.682Z" fill="#F65135"/>
<path d="M325.319 108.506C326.871 107.987 327.955 106.896 328.567 105.235C329.188 103.578 329.503 100.933 329.503 97.2955V64.7192C329.503 61.0859 329.188 58.4408 328.567 56.7796C327.955 55.1227 326.871 54.0323 325.319 53.5084V53.2187H342.445C349.656 53.2187 355.255 55.5316 359.248 60.1531C363.236 64.7661 365.234 71.2277 365.234 79.5421C365.234 85.5309 364.205 90.7146 362.156 95.0976C360.115 99.4848 357.211 102.863 353.448 105.235C349.681 107.612 345.204 108.796 340.013 108.796H325.319V108.506ZM338.261 102.952H339.537C344.524 102.952 348.542 100.856 351.595 96.6651C354.643 92.4653 356.169 86.8258 356.169 79.7466C356.169 73.3063 354.758 68.2546 351.935 64.5829C349.112 60.9028 345.362 59.0627 340.693 59.0627H338.261V102.952Z" fill="#F65135"/>
<path d="M392.293 103.719C394.172 103.719 395.698 102.995 396.868 101.538C398.033 100.073 398.891 98.1261 399.436 95.6939C399.988 93.2533 400.269 90.5656 400.269 87.6351C400.269 84.3894 399.937 81.0414 399.283 77.5998C398.636 74.1497 397.709 70.9636 396.51 68.0416C395.32 65.1111 393.879 62.7556 392.191 60.9709C390.499 59.1777 388.619 58.279 386.544 58.279C384.661 58.279 383.118 59.0116 381.919 60.4768C380.715 61.9421 379.835 63.8801 379.283 66.2867C378.738 68.6976 378.466 71.3597 378.466 74.2774C378.466 77.5956 378.789 80.9818 379.436 84.432C380.082 87.8736 381.005 91.0597 382.208 93.9902C383.407 96.9121 384.869 99.2634 386.596 101.044C388.317 102.829 390.218 103.719 392.293 103.719ZM369.895 80.0362C369.895 71.3257 371.613 64.5318 375.048 59.659C378.492 54.7777 383.266 52.3328 389.368 52.3328C393.254 52.3328 396.655 53.5382 399.572 55.9448C402.497 58.3556 404.767 61.7036 406.391 65.9971C408.024 70.2821 408.84 75.2827 408.84 81.0074C408.84 86.6639 408.024 91.656 406.391 95.9836C404.767 100.303 402.497 103.663 399.572 106.07C396.655 108.481 393.254 109.682 389.368 109.682C385.409 109.682 381.97 108.464 379.044 106.019C376.128 103.578 373.874 100.132 372.276 95.6769C370.686 91.2258 369.895 86.0122 369.895 80.0362Z" fill="#F65135"/>
<path d="M436.87 108.506C438.49 107.987 439.642 106.896 440.322 105.235C441.002 103.578 441.436 100.933 441.632 97.2955L443.383 64.7192C443.587 61.0859 443.409 58.4408 442.856 56.7796C442.299 55.1227 441.279 54.0323 439.795 53.5084V53.2187H453.893L464.897 75.453L475.798 53.2187H488.944V53.5084C487.448 54.0323 486.419 55.1227 485.866 56.7796C485.322 58.4408 485.143 61.0859 485.339 64.7192L487.091 97.2955C487.282 100.933 487.72 103.578 488.4 105.235C489.081 106.896 490.228 107.987 491.853 108.506V108.796H474.727V108.506C476.223 107.987 477.244 106.896 477.788 105.235C478.341 103.578 478.524 100.933 478.332 97.2955L476.581 65.6052L463.434 92.4227L450.305 65.8948L448.638 97.2955C448.443 100.933 448.621 103.578 449.166 105.235C449.718 106.896 450.747 107.987 452.244 108.506V108.796H436.87V108.506Z" fill="#F65135"/>
<path d="M490.313 108.506C491.606 108.055 492.634 107.16 493.408 105.831C494.191 104.494 495.007 102.164 495.857 98.8459L504.616 65.2133C505.589 61.5119 506.027 58.7518 505.925 56.933C505.823 55.1057 505.219 53.9641 504.123 53.5084V53.2187H518.34L530.602 98.8459C531.384 101.972 532.175 104.23 532.983 105.627C533.799 107.024 534.854 107.987 536.146 108.506V108.796H519.31V108.506C520.67 107.987 521.508 106.866 521.827 105.15C522.154 103.425 521.865 100.805 520.959 97.2955L520.381 95.1487H503.833L503.34 97.2955C502.498 100.737 502.209 103.323 502.473 105.048C502.732 106.764 503.578 107.919 505.007 108.506V108.796H490.313V108.506ZM505.296 89.2877H518.918L511.725 62.8621L505.296 89.2877Z" fill="#F65135"/>
<path d="M535.564 108.506C537.116 107.987 538.2 106.896 538.812 105.235C539.433 103.578 539.748 100.933 539.748 97.2955V64.7192C539.748 61.0859 539.433 58.4408 538.812 56.7796C538.2 55.1227 537.116 54.0323 535.564 53.5084V53.2187H559.22C563.957 53.2187 567.749 54.4582 570.598 56.933C573.455 59.3992 574.884 62.483 574.884 66.1845C574.884 68.5953 574.297 70.7421 573.132 72.6248C571.963 74.5117 570.385 75.977 568.404 77.0205C566.431 78.0556 564.242 78.5369 561.839 78.4687C563.982 81.1394 566.027 84.3936 567.979 88.2314C569.926 92.0606 571.516 95.8941 572.741 99.7319C574.305 104.605 576.125 107.531 578.2 108.506V108.796H561.652L561.55 108.506C563.816 107.463 564.467 104.894 563.506 100.805C562.724 97.4914 561.601 94.0754 560.139 90.5656C558.676 87.0558 556.967 83.793 555.02 80.7688C553.081 77.7489 550.908 75.3934 548.506 73.6982V97.2955C548.506 100.933 548.812 103.578 549.424 105.235C550.045 106.896 551.134 107.987 552.69 108.506V108.796H535.564V108.506ZM548.506 60.5279C548.506 63.0069 548.974 65.2048 549.918 67.1216C550.857 69.0298 552.103 70.5249 553.659 71.6025C555.224 72.6716 556.848 73.2041 558.54 73.2041C560.738 73.2041 562.405 72.5566 563.54 71.2618C564.684 69.9584 565.258 68.459 565.258 66.7638C565.258 64.4253 564.297 62.4788 562.384 60.9198C560.466 59.3651 557.983 58.5856 554.935 58.5856H548.506V60.5279Z" fill="#F65135"/>
<path d="M36.9844 172.763C35.8025 174.309 35.2157 175.975 35.2157 177.755C35.2157 179.88 36.1086 181.533 37.9028 182.713C38.9317 183.403 40.1052 183.752 41.4232 183.752C42.7497 183.752 43.8977 183.497 44.8756 182.986C46.6996 182.032 47.7242 180.438 47.9538 178.198C47.9751 178.04 47.9878 177.883 47.9878 177.721C47.9878 176.882 47.754 175.979 47.2905 175.012C46.8229 174.037 46.0746 173.146 45.0457 172.337L38.9402 167.515C37.6137 166.472 36.9504 165.126 36.9504 163.477C36.9504 161.833 37.4776 160.436 38.532 159.286C39.595 158.14 41.032 157.565 42.8348 157.565C43.7404 157.565 44.7268 157.68 45.794 157.906H47.1375L47.2055 162.08H46.8654C46.8399 161.003 46.4487 160.151 45.6919 159.525C44.9436 158.903 43.9955 158.588 42.8518 158.588C41.7166 158.588 40.7642 158.971 39.9946 159.729C39.2208 160.491 38.8382 161.467 38.8382 162.66C38.8382 163.844 39.3356 164.823 40.3348 165.607L46.5933 170.565C49.0763 172.533 50.3178 174.905 50.3178 177.687C50.3178 179.765 49.4929 181.554 47.8518 183.054C46.4317 184.336 44.5397 184.979 42.1715 184.979C40.7174 184.979 39.4334 184.706 38.311 184.161C36.1766 183.173 34.9011 181.482 34.4844 179.084C34.4164 178.722 34.3824 178.262 34.3824 177.704C34.3824 177.15 34.5354 176.392 34.8416 175.438C35.1562 174.475 35.7684 173.504 36.6783 172.524L36.9844 172.763Z" fill="#3242B8"/>
<path d="M54.0063 181.452C54.5931 181.452 55.099 181.243 55.5199 180.822C55.9366 180.404 56.1577 179.902 56.1832 179.322V160.325C56.1832 159.78 55.9664 159.32 55.5369 158.945C55.1033 158.57 54.5931 158.383 54.0063 158.383H53.5982L53.5641 158.042H63.4961C64.1977 158.042 64.9587 157.974 65.775 157.838C66.5999 157.702 67.1866 157.565 67.5267 157.429V161.705H67.1866V161.092C67.1866 160.56 66.9995 160.1 66.6254 159.712C66.2512 159.329 65.8005 159.124 65.2818 159.099H58.3771V169.577H64.1084C64.5505 169.556 64.9289 169.389 65.2478 169.083C65.5624 168.768 65.724 168.367 65.724 167.89V167.413H66.0641V172.763H65.724V172.269C65.724 171.817 65.571 171.43 65.2648 171.11C64.9587 170.795 64.5846 170.625 64.1424 170.599H58.3771V180.737H63.224C64.8907 180.737 66.1662 180.37 67.0505 179.629C67.9349 178.879 68.6662 177.768 69.2444 176.29H69.5846L67.6288 181.793H53.5641V181.452H54.0063Z" fill="#3242B8"/>
<path d="M79.7497 159.099H77.5729V179.322C77.5729 179.902 77.7812 180.404 78.2021 180.822C78.6188 181.243 79.1375 181.452 79.7497 181.452H80.1409L80.1749 181.793H72.7599V181.452H73.2021C73.7889 181.452 74.2948 181.248 74.7157 180.839C75.1324 180.43 75.3535 179.936 75.379 179.357V160.53C75.3535 159.942 75.1324 159.435 74.7157 159.013C74.2948 158.596 73.7889 158.383 73.2021 158.383H72.7599V158.042H81.9096C83.9589 158.042 85.5703 158.617 86.7395 159.763C87.9173 160.9 88.5082 162.383 88.5082 164.21C88.5082 166.029 87.947 167.6 86.8246 168.929C85.7106 170.25 84.3586 170.906 82.7599 170.906C83.1001 171.068 83.4955 171.379 83.9504 171.843C84.4139 172.299 84.8263 172.776 85.1919 173.274C87.1307 176.06 88.3935 177.772 88.9844 178.419C89.5712 179.067 89.9921 179.51 90.2429 179.748C90.4895 179.978 90.7574 180.204 91.0423 180.43C91.3356 180.66 91.629 180.839 91.9266 180.975C92.5814 181.295 93.2872 181.452 94.0355 181.452V181.793H92.1647C91.1996 181.793 90.2982 181.618 89.4606 181.265C88.6188 180.916 87.9895 180.558 87.5729 180.191C87.1647 179.817 86.8076 179.455 86.5014 179.101C86.1953 178.752 85.3492 177.58 83.9674 175.591C82.5941 173.594 81.7948 172.456 81.5695 172.184C81.3399 171.903 81.1018 171.621 80.8552 171.349C80.1409 170.578 79.4181 170.19 78.6953 170.19V169.849C78.8739 169.875 79.112 169.884 79.4096 169.884C79.703 169.884 80.0601 169.875 80.481 169.849C83.2787 169.781 85.0431 168.606 85.7702 166.323C85.9062 165.871 85.9742 165.449 85.9742 165.062C85.9742 164.666 85.9742 164.41 85.9742 164.295C85.9275 162.775 85.5321 161.552 84.7838 160.632C84.044 159.703 83.0406 159.201 81.7736 159.133C81.2293 159.111 80.5533 159.099 79.7497 159.099Z" fill="#3242B8"/>
<path d="M109.739 158.042H116.542V158.383H116.235C115.678 158.383 115.13 158.562 114.586 158.911C114.042 159.265 113.608 159.793 113.293 160.496L105.13 178.777C104.301 180.609 103.889 181.772 103.889 182.27H103.582L94.0586 160.53C93.7397 159.806 93.3018 159.265 92.749 158.911C92.2048 158.562 91.6479 158.383 91.0824 158.383H90.8103V158.042H98.4293V158.383H98.1232C97.647 158.383 97.2899 158.536 97.0518 158.843C96.8222 159.15 96.7116 159.435 96.7116 159.695C96.7116 159.959 96.7627 160.223 96.8647 160.496L103.957 178.266L111.337 160.496C111.427 160.223 111.474 159.959 111.474 159.695C111.474 159.435 111.354 159.15 111.116 158.843C110.878 158.536 110.521 158.383 110.045 158.383H109.739V158.042Z" fill="#3242B8"/>
<path d="M118.635 181.452C119.222 181.452 119.728 181.243 120.149 180.822C120.566 180.404 120.787 179.902 120.812 179.322V160.496C120.787 159.908 120.566 159.405 120.149 158.996C119.728 158.587 119.222 158.383 118.635 158.383H118.193V158.042H125.608V158.383H125.183C124.592 158.383 124.086 158.587 123.669 158.996C123.248 159.405 123.027 159.908 123.006 160.496V179.322C123.006 179.902 123.219 180.404 123.652 180.822C124.082 181.243 124.592 181.452 125.183 181.452H125.608V181.793H118.193V181.452H118.635Z" fill="#3242B8"/>
<path d="M153.956 158.383C153.386 158.383 152.901 158.583 152.493 158.979C152.094 159.38 151.885 159.861 151.864 160.428V177.925C151.864 179.246 151.936 180.49 152.085 181.657L152.153 182.27H151.864L133.395 162.523V179.425C133.395 179.983 133.599 180.46 134.007 180.856C134.415 181.256 134.9 181.452 135.469 181.452H136.116V181.793H129.143V181.452H129.772C130.338 181.452 130.827 181.256 131.235 180.856C131.643 180.46 131.847 179.97 131.847 179.391V161.774C131.847 160.402 131.766 159.167 131.609 158.076L131.541 157.531H131.881L150.333 177.278V160.462C150.308 159.874 150.095 159.38 149.687 158.979C149.279 158.583 148.794 158.383 148.242 158.383H147.595V158.042H154.568V158.383H153.956Z" fill="#3242B8"/>
<path d="M169.249 158.042C172.863 158.042 175.797 159.141 178.042 161.331C180.287 163.511 181.409 166.382 181.409 169.935C181.409 173.479 180.287 176.341 178.042 178.522C175.797 180.703 172.863 181.793 169.249 181.793H157.77V181.452H158.212C158.799 181.452 159.305 181.243 159.725 180.822C160.142 180.404 160.363 179.902 160.389 179.322V160.325C160.389 159.78 160.168 159.32 159.725 158.945C159.283 158.57 158.777 158.383 158.212 158.383H157.804L157.77 158.042H169.249ZM162.583 159.065V180.771H169.249C171.154 180.771 172.829 180.323 174.283 179.425C175.733 178.517 176.86 177.244 177.668 175.608C178.471 173.964 178.875 172.064 178.875 169.918C178.875 166.659 177.982 164.035 176.205 162.046C174.436 160.061 172.115 159.065 169.249 159.065H162.583Z" fill="#3242B8"/>
<path d="M188.389 160.99C190.804 158.707 193.933 157.565 197.776 157.565C201.628 157.565 204.766 158.707 207.181 160.99C209.596 163.264 210.804 166.246 210.804 169.935C210.804 173.615 209.596 176.592 207.181 178.862C204.766 181.137 201.628 182.27 197.776 182.27C193.933 182.27 190.804 181.137 188.389 178.862C185.974 176.592 184.766 173.615 184.766 169.935C184.766 166.246 185.974 163.264 188.389 160.99ZM190.225 178.13C192.13 180.208 194.639 181.248 197.759 181.248C200.876 181.248 203.389 180.208 205.293 178.13C207.198 176.051 208.151 173.321 208.151 169.935C208.151 166.54 207.198 163.801 205.293 161.722C203.389 159.635 200.876 158.588 197.759 158.588C194.639 158.588 192.13 159.635 190.225 161.722C188.321 163.801 187.368 166.54 187.368 169.935C187.368 173.321 188.321 176.051 190.225 178.13Z" fill="#3242B8"/>
<path d="M229.966 165.948C229.873 165.654 229.83 165.398 229.83 165.181C229.83 164.968 229.839 164.73 229.864 164.466C229.886 164.193 229.932 163.818 230 163.341C230.077 162.864 230.23 162.395 230.46 161.927C230.685 161.463 230.944 161.02 231.242 160.598C231.535 160.168 231.914 159.772 232.381 159.405C232.845 159.043 233.355 158.724 233.912 158.451C235.111 157.863 236.569 157.565 238.283 157.565C241.739 157.565 244.558 158.72 246.735 161.024C248.912 163.32 250 166.255 250 169.832C250 173.402 248.712 176.366 246.14 178.726C243.563 181.09 240.298 182.27 236.344 182.27C232.398 182.27 229.12 181.094 226.514 178.743C223.903 176.392 222.602 173.338 222.602 169.577C222.602 167.158 223.168 165.011 224.303 163.137C225.434 161.262 227.05 159.793 229.15 158.724L229.354 159.03C227.879 160.01 226.82 161.412 226.174 163.239C225.536 165.07 225.222 167.013 225.222 169.066C225.222 172.895 226.259 175.881 228.334 178.028C230.409 180.174 233.07 181.248 236.327 181.248C239.58 181.248 242.237 180.17 244.303 178.011C246.365 175.855 247.398 173.01 247.398 169.475C247.398 166.421 246.574 163.844 244.932 161.74C243.3 159.64 240.991 158.588 238.011 158.588C236.684 158.588 235.477 158.826 234.388 159.303C232.424 160.146 231.127 161.527 230.494 163.443C230.311 164.014 230.222 164.5 230.222 164.909C230.222 165.309 230.243 165.633 230.29 165.88L229.966 165.948Z" fill="#3242B8"/>
<path d="M290.97 181.452H291.514V181.793H284.167V181.486H284.678C285.052 181.486 285.375 181.341 285.647 181.043C285.919 180.749 286.03 180.409 285.987 180.021L284.474 162.966L277.365 178.811C276.727 180.187 276.344 181.341 276.208 182.27H275.868L267.195 163.443L265.749 180.021C265.702 180.387 265.809 180.72 266.072 181.026C266.344 181.333 266.672 181.486 267.059 181.486H267.569V181.793H261.004V181.452H261.548C262.169 181.452 262.713 181.261 263.181 180.873C263.644 180.49 263.921 179.97 264.014 179.323L266.548 157.565H266.889L276.344 178.028L285.579 157.565H285.885L288.504 179.323C288.593 179.97 288.87 180.49 289.337 180.873C289.814 181.261 290.358 181.452 290.97 181.452Z" fill="#3242B8"/>
<path d="M316.265 181.452H316.52V181.793H308.918V181.452H309.207C309.683 181.452 310.04 181.299 310.278 180.992C310.516 180.686 310.636 180.404 310.636 180.14C310.636 179.868 310.589 179.595 310.499 179.323L308.34 173.547H299.19L296.928 179.357C296.835 179.629 296.792 179.898 296.792 180.157C296.792 180.409 296.911 180.686 297.149 180.992C297.387 181.299 297.736 181.452 298.204 181.452H298.51V181.793H291.707V181.452H292.013C292.579 181.452 293.127 181.273 293.663 180.907C294.207 180.545 294.649 180.017 294.989 179.323L302.642 161.075C303.48 159.235 303.901 158.068 303.901 157.565H304.207L313.272 179.323C313.586 180.017 314.02 180.545 314.564 180.907C315.108 181.273 315.674 181.452 316.265 181.452ZM299.598 172.524H307.931L303.867 161.637L299.598 172.524Z" fill="#3242B8"/>
<path d="M325.132 159.099H322.955V179.322C322.955 179.902 323.163 180.404 323.584 180.822C324.001 181.243 324.519 181.452 325.132 181.452H325.523L325.557 181.793H318.142V181.452H318.584C319.171 181.452 319.677 181.248 320.098 180.839C320.514 180.43 320.735 179.936 320.761 179.357V160.53C320.735 159.942 320.514 159.435 320.098 159.013C319.677 158.596 319.171 158.383 318.584 158.383H318.142V158.042H327.291C329.341 158.042 330.952 158.617 332.121 159.763C333.299 160.9 333.89 162.383 333.89 164.21C333.89 166.029 333.329 167.6 332.206 168.929C331.092 170.25 329.74 170.906 328.142 170.906C328.482 171.068 328.877 171.379 329.332 171.843C329.796 172.299 330.208 172.776 330.574 173.274C332.513 176.06 333.775 177.772 334.366 178.419C334.953 179.067 335.374 179.51 335.625 179.748C335.871 179.978 336.139 180.204 336.424 180.43C336.717 180.66 337.011 180.839 337.308 180.975C337.963 181.295 338.669 181.452 339.417 181.452V181.793H337.547C336.581 181.793 335.68 181.618 334.842 181.265C334.001 180.916 333.371 180.558 332.955 180.191C332.547 179.817 332.189 179.455 331.883 179.101C331.577 178.752 330.731 177.58 329.349 175.591C327.976 173.594 327.177 172.456 326.951 172.184C326.722 171.903 326.484 171.621 326.237 171.349C325.523 170.578 324.8 170.19 324.077 170.19V169.849C324.256 169.875 324.494 169.884 324.791 169.884C325.085 169.884 325.442 169.875 325.863 169.849C328.661 169.781 330.425 168.606 331.152 166.323C331.288 165.871 331.356 165.449 331.356 165.062C331.356 164.666 331.356 164.41 331.356 164.295C331.309 162.775 330.914 161.552 330.166 160.632C329.426 159.703 328.422 159.201 327.155 159.133C326.611 159.111 325.935 159.099 325.132 159.099Z" fill="#3242B8"/>
<path d="M349.968 181.452C350.554 181.452 351.06 181.243 351.481 180.822C351.898 180.404 352.119 179.902 352.145 179.322V160.325C352.145 159.78 351.928 159.32 351.498 158.945C351.065 158.57 350.554 158.383 349.968 158.383H349.56L349.526 158.042H359.458C360.159 158.042 360.92 157.974 361.736 157.838C362.561 157.702 363.148 157.565 363.488 157.429V161.705H363.148V161.092C363.148 160.56 362.961 160.1 362.587 159.712C362.213 159.329 361.762 159.124 361.243 159.099H354.338V169.577H360.07C360.512 169.556 360.89 169.389 361.209 169.083C361.524 168.768 361.685 168.367 361.685 167.89V167.413H362.026V172.763H361.685V172.269C361.685 171.817 361.532 171.43 361.226 171.11C360.92 170.795 360.546 170.625 360.104 170.599H354.338V180.737H359.185C360.852 180.737 362.128 180.37 363.012 179.629C363.896 178.879 364.628 177.768 365.206 176.29H365.546L363.59 181.793H349.526V181.452H349.968Z" fill="#3242B8"/>
<path d="M397.512 181.452H398.057V181.793H390.71V181.486H391.22C391.594 181.486 391.917 181.341 392.189 181.043C392.461 180.749 392.572 180.409 392.529 180.021L391.016 162.966L383.907 178.811C383.269 180.187 382.887 181.341 382.75 182.27H382.41L373.737 163.443L372.291 180.021C372.245 180.387 372.351 180.72 372.614 181.026C372.887 181.333 373.214 181.486 373.601 181.486H374.111V181.793H367.546V181.452H368.091C368.711 181.452 369.256 181.261 369.723 180.873C370.187 180.49 370.463 179.97 370.557 179.323L373.091 157.565H373.431L382.887 178.028L392.121 157.565H392.427L395.046 179.323C395.136 179.97 395.412 180.49 395.88 180.873C396.356 181.261 396.9 181.452 397.512 181.452Z" fill="#3242B8"/>
<path d="M431.9 158.383H431.373C430.897 158.383 430.48 158.536 430.131 158.843C429.779 159.15 429.591 159.533 429.57 159.985V173.41C429.57 176.06 428.728 178.198 427.053 179.834C425.387 181.461 423.163 182.27 420.387 182.27C417.619 182.27 415.37 181.465 413.635 179.851C411.909 178.228 411.05 176.094 411.05 173.444V160.087C411.05 159.405 410.752 158.907 410.165 158.587C409.893 158.451 409.587 158.383 409.247 158.383H408.72V158.042H415.591V158.383H415.046C414.545 158.383 414.128 158.536 413.788 158.843C413.448 159.15 413.265 159.542 413.244 160.019V172.967C413.244 175.434 413.898 177.427 415.216 178.948C416.543 180.46 418.312 181.214 420.523 181.214C422.742 181.214 424.54 180.498 425.914 179.067C427.283 177.627 427.972 175.74 427.972 173.41V160.019C427.946 159.542 427.767 159.15 427.427 158.843C427.096 158.536 426.683 158.383 426.186 158.383H425.642V158.042H431.9V158.383Z" fill="#3242B8"/>
<path d="M463.394 181.452H463.939V181.793H456.592V181.486H457.102C457.476 181.486 457.799 181.341 458.071 181.043C458.343 180.749 458.454 180.409 458.411 180.021L456.898 162.966L449.789 178.811C449.151 180.187 448.769 181.341 448.633 182.27H448.292L439.619 163.443L438.173 180.021C438.127 180.387 438.233 180.72 438.496 181.026C438.769 181.333 439.096 181.486 439.483 181.486H439.993V181.793H433.428V181.452H433.973C434.593 181.452 435.138 181.261 435.605 180.873C436.069 180.49 436.345 179.97 436.439 179.323L438.973 157.565H439.313L448.769 178.028L458.003 157.565H458.309L460.928 179.323C461.018 179.97 461.294 180.49 461.762 180.873C462.238 181.261 462.782 181.452 463.394 181.452Z" fill="#3242B8"/>
<path d="M490.741 164.602C490.741 165.59 490.537 166.519 490.129 167.379C489.389 168.981 488.08 170.101 486.201 170.735C485.554 170.965 484.993 171.076 484.517 171.076C483.11 171.076 481.902 170.816 480.894 170.292V169.952C482.536 170.318 484.062 170.135 485.469 169.406C486.702 168.785 487.548 167.745 488.003 166.289C488.139 165.837 488.207 165.411 488.207 165.011C488.207 164.602 488.207 164.355 488.207 164.261C488.161 162.672 487.74 161.412 486.949 160.479C486.167 159.537 485.061 159.065 483.633 159.065H479.738V179.322C479.759 179.902 479.98 180.404 480.401 180.822C480.818 181.243 481.324 181.452 481.915 181.452H482.34V181.793H474.925V181.452H475.367C475.954 181.452 476.46 181.243 476.881 180.822C477.297 180.404 477.519 179.902 477.544 179.322V160.359C477.476 159.793 477.238 159.32 476.83 158.945C476.422 158.57 475.933 158.383 475.367 158.383H474.959L474.925 158.042H483.769C485.933 158.042 487.633 158.63 488.871 159.797C490.116 160.956 490.741 162.557 490.741 164.602Z" fill="#3242B8"/>
<path d="M501.28 159.099H499.103V179.322C499.103 179.902 499.311 180.404 499.732 180.822C500.149 181.243 500.668 181.452 501.28 181.452H501.671L501.705 181.793H494.29V181.452H494.732C495.319 181.452 495.825 181.248 496.246 180.839C496.663 180.43 496.884 179.936 496.909 179.357V160.53C496.884 159.942 496.663 159.435 496.246 159.013C495.825 158.596 495.319 158.383 494.732 158.383H494.29V158.042H503.44C505.489 158.042 507.101 158.617 508.27 159.763C509.448 160.9 510.038 162.383 510.038 164.21C510.038 166.029 509.477 167.6 508.355 168.929C507.241 170.25 505.889 170.906 504.29 170.906C504.63 171.068 505.026 171.379 505.481 171.843C505.944 172.299 506.357 172.776 506.722 173.274C508.661 176.06 509.924 177.772 510.515 178.419C511.101 179.067 511.522 179.51 511.773 179.748C512.02 179.978 512.288 180.204 512.573 180.43C512.866 180.66 513.159 180.839 513.457 180.975C514.112 181.295 514.817 181.452 515.566 181.452V181.793H513.695C512.73 181.793 511.828 181.618 510.991 181.265C510.149 180.916 509.52 180.558 509.103 180.191C508.695 179.817 508.338 179.455 508.032 179.101C507.726 178.752 506.879 177.58 505.498 175.591C504.124 173.594 503.325 172.456 503.1 172.184C502.87 171.903 502.632 171.621 502.385 171.349C501.671 170.578 500.948 170.19 500.226 170.19V169.849C500.404 169.875 500.642 169.884 500.94 169.884C501.233 169.884 501.59 169.875 502.011 169.849C504.809 169.781 506.573 168.606 507.3 166.323C507.436 165.871 507.504 165.449 507.504 165.062C507.504 164.666 507.504 164.41 507.504 164.295C507.458 162.775 507.062 161.552 506.314 160.632C505.574 159.703 504.571 159.201 503.304 159.133C502.76 159.111 502.084 159.099 501.28 159.099Z" fill="#3242B8"/>
<path d="M538.422 181.452H538.677V181.793H531.075V181.452H531.364C531.841 181.452 532.198 181.299 532.436 180.992C532.674 180.686 532.793 180.404 532.793 180.14C532.793 179.868 532.746 179.595 532.657 179.323L530.497 173.547H521.347L519.085 179.357C518.992 179.629 518.949 179.898 518.949 180.157C518.949 180.409 519.068 180.686 519.307 180.992C519.545 181.299 519.893 181.452 520.361 181.452H520.667V181.793H513.864V181.452H514.17C514.736 181.452 515.284 181.273 515.82 180.907C516.364 180.545 516.807 180.017 517.147 179.323L524.8 161.075C525.637 159.235 526.058 158.068 526.058 157.565H526.364L535.429 179.323C535.744 180.017 536.177 180.545 536.721 180.907C537.266 181.273 537.831 181.452 538.422 181.452ZM521.755 172.524H530.089L526.024 161.637L521.755 172.524Z" fill="#3242B8"/>
<path d="M555.854 161.075C555.854 160.53 555.658 160.061 555.276 159.661C554.889 159.265 554.434 159.056 553.915 159.03H547.487V179.357C547.508 179.936 547.729 180.43 548.15 180.839C548.566 181.248 549.068 181.452 549.646 181.452H550.089V181.793H542.674V181.452H543.116C543.703 181.452 544.208 181.248 544.629 180.839C545.046 180.43 545.267 179.949 545.293 179.391V159.03H538.847C538.303 159.056 537.844 159.265 537.47 159.661C537.104 160.061 536.925 160.53 536.925 161.075V161.637L536.585 161.671V157.395C536.925 157.531 537.508 157.667 538.337 157.804C539.174 157.94 539.944 158.008 540.65 158.008H552.095C553.192 158.008 554.111 157.923 554.85 157.753C555.586 157.582 556.032 157.463 556.194 157.395V161.671L555.854 161.637V161.075Z" fill="#3242B8"/>
<path d="M560.964 160.99C563.379 158.707 566.508 157.565 570.352 157.565C574.204 157.565 577.341 158.707 579.756 160.99C582.171 163.264 583.379 166.246 583.379 169.935C583.379 173.615 582.171 176.592 579.756 178.862C577.341 181.137 574.204 182.27 570.352 182.27C566.508 182.27 563.379 181.137 560.964 178.862C558.549 176.592 557.341 173.615 557.341 169.935C557.341 166.246 558.549 163.264 560.964 160.99ZM562.801 178.13C564.705 180.208 567.214 181.248 570.335 181.248C573.451 181.248 575.964 180.208 577.869 178.13C579.773 176.051 580.726 173.321 580.726 169.935C580.726 166.54 579.773 163.801 577.869 161.722C575.964 159.635 573.451 158.588 570.335 158.588C567.214 158.588 564.705 159.635 562.801 161.722C560.896 163.801 559.943 166.54 559.943 169.935C559.943 173.321 560.896 176.051 562.801 178.13Z" fill="#3242B8"/>
</svg>
