<svg width="400" height="66" viewBox="0 0 400 66" fill="none" xmlns="http://www.w3.org/2000/svg">
<path d="M6.11712 65.1596C4.25121 65.1596 2.76361 64.7428 1.65432 63.9156C0.551439 63.0852 0 62.0176 0 60.7096C0 59.6484 0.310986 58.8661 0.936163 58.3628C1.56775 57.8658 2.26026 57.6189 3.01368 57.6189C3.72221 57.6189 4.36342 57.8434 4.9373 58.2986C5.51759 58.7507 5.80934 59.4047 5.80934 60.2607C5.80934 60.9596 5.60736 61.5367 5.20661 61.992C5.50477 62.0946 5.80293 62.1587 6.1043 62.1844C6.41208 62.21 6.6878 62.2228 6.93787 62.2228C10.1599 62.2228 12.8402 60.9404 14.9786 58.3756C17.1138 55.8107 18.4315 52.3162 18.9285 47.8854L22.096 21.9422C22.4551 19.2747 22.5833 17.2677 22.4807 15.9148C22.3781 14.5554 22.112 13.5776 21.6856 12.9781C21.256 12.3721 20.6918 11.9393 19.9929 11.6828L20.0698 11.5289C22.2756 11.3334 24.3178 10.5543 26.1997 9.19494C28.0881 7.83558 29.5116 6.15241 30.4702 4.14222C27.2032 3.94666 24.3274 4.22558 21.8395 4.97579C19.3516 5.72921 17.2645 6.7327 15.5813 7.98947C13.895 9.24624 12.6254 10.5543 11.7726 11.9137C10.9166 13.273 10.4902 14.4785 10.4902 15.5301C10.4902 16.5913 10.8268 17.3222 11.5033 17.723C12.1765 18.127 12.93 18.2039 13.7603 17.9538C14.5971 17.6974 15.2159 17.1684 15.6198 16.3636C15.1133 19.1273 14.0072 21.2112 12.2984 22.6218C10.5863 24.0325 8.85187 24.7378 7.09176 24.7378C5.22584 24.7378 3.78954 24.1607 2.78284 23.0066C1.78256 21.846 1.28242 20.4097 1.28242 18.6976C1.28242 16.9888 1.80821 15.1678 2.85979 13.2345C3.91778 11.2949 5.55606 9.46104 7.77144 7.73299C9.9836 5.99852 12.837 4.57825 16.3251 3.47537C19.8197 2.36608 24.01 1.80823 28.8928 1.80823C30.2009 1.80823 31.4705 1.8467 32.7016 1.92364C33.9327 1.99418 35.0741 2.15448 36.1256 2.41096L36.2026 2.56485C34.6957 3.06179 33.5897 4.00116 32.8811 5.38617C32.179 6.77118 31.8295 8.31969 31.8295 10.0285C31.8295 11.9874 32.1662 13.7603 32.8427 15.3505C33.5255 16.9343 34.3687 18.454 35.369 19.9159C36.3757 21.3715 37.3696 22.8879 38.3442 24.4685C39.3253 26.0523 40.1685 27.8124 40.8706 29.7521C41.5791 31.6853 41.935 33.9071 41.935 36.4206L49.5525 17.3383C50.0559 16.1328 50.556 14.7414 51.053 13.1576C51.5563 11.577 51.8096 10.0798 51.8096 8.66915C51.8096 7.71375 51.6461 6.87056 51.3223 6.14279C50.9952 5.41823 50.4053 4.87961 49.5525 4.52695V4.29611H63.736V4.52695C62.7774 4.87961 62.0978 5.54647 61.697 6.52752C61.293 7.50215 61.0943 8.87113 61.0943 10.6312C61.0943 11.8367 61.1648 13.2698 61.3123 14.9273L64.7876 49.9245C65.0858 52.9958 65.6372 55.3683 66.4419 57.0547C67.2434 58.7379 68.3527 59.8279 69.7634 60.3248V60.5557H54.3103V60.3248C55.6087 59.8279 56.484 58.7379 56.9392 57.0547C57.3913 55.3683 57.4682 52.9958 57.1701 49.9245L54.3103 20.8136L41.5631 52.7073L40.6526 52.6432C40.8994 50.3284 40.6462 48.1643 39.8959 46.1542C39.1425 44.1472 38.1519 42.1626 36.9207 40.2038C35.6896 38.2384 34.4713 36.1994 33.2659 34.0866C32.0604 31.9771 31.0761 29.7136 30.3163 27.3026C29.5629 24.8853 29.316 22.2179 29.5725 19.3004H28.8928C28.3863 23.6285 27.8829 27.9791 27.3796 32.3554C26.873 36.7252 26.3472 41.0982 25.8022 45.4745C25.2956 49.5974 25.2315 52.7842 25.6098 55.0413C25.9849 57.3048 26.9243 58.8437 28.4311 59.658L27.3796 61.3893C25.7701 60.7288 24.0613 60.53 22.2499 60.7865V60.5557C22.2499 59.9978 22.0607 59.5458 21.6856 59.1963C21.3073 58.8437 20.8425 58.6705 20.2878 58.6705C19.7813 58.6705 19.342 58.8437 18.9669 59.1963C18.5886 59.5458 18.4027 59.9978 18.4027 60.5557C18.4027 60.9564 18.5053 61.2867 18.7104 61.5431C16.649 62.1908 14.6356 62.957 12.6703 63.8387C10.7114 64.7171 8.52806 65.1596 6.11712 65.1596Z" fill="#F65135"/>
<path d="M67.3429 54.0666C68.3528 53.7172 69.1543 53.0279 69.7538 52.002C70.3598 50.9696 70.9914 49.1678 71.6518 46.603L78.4358 20.5828C79.186 17.7198 79.5258 15.5878 79.4489 14.1835C79.3719 12.7729 78.9039 11.888 78.0511 11.5289V11.3109H89.067L98.5697 46.603C99.1756 49.0139 99.7912 50.7644 100.416 51.8481C101.048 52.9253 101.866 53.6659 102.866 54.0666V54.2975H89.8236V54.0666C90.8752 53.6659 91.5228 52.8035 91.7729 51.4762C92.0294 50.1425 91.805 48.1162 91.1061 45.3975L90.6572 43.7432H77.833L77.4483 45.3975C76.7975 48.0649 76.5699 50.0655 76.7686 51.3992C76.9738 52.7265 77.6279 53.6146 78.7307 54.0666V54.2975H67.3429V54.0666ZM78.9616 39.2163H89.5159L83.9373 18.7746L78.9616 39.2163Z" fill="#F65135"/>
<path d="M102.411 54.0666C103.617 53.6659 104.457 52.8227 104.938 51.5403C105.415 50.2579 105.656 48.2124 105.656 45.3975V20.2109C105.656 17.3896 105.415 15.3441 104.938 14.0681C104.457 12.7857 103.617 11.9393 102.411 11.5289V11.3109H115.684V11.5289C114.479 11.9393 113.636 12.7857 113.158 14.0681C112.687 15.3441 112.453 17.3896 112.453 20.2109V45.3975C112.453 48.2124 112.687 50.2579 113.158 51.5403C113.636 52.8227 114.479 53.6659 115.684 54.0666V54.2975H102.411V54.0666Z" fill="#F65135"/>
<path d="M130.851 54.9772C128.43 54.9772 126.074 54.4963 123.785 53.5408C121.502 52.5854 119.607 51.1524 118.104 49.2448L120.887 39.0624H121.117C121.416 41.5246 122.118 43.5637 123.221 45.1795C124.33 46.7889 125.638 47.9816 127.145 48.7574C128.658 49.5365 130.146 49.9244 131.608 49.9244C133.316 49.9244 134.788 49.4115 136.019 48.3855C137.25 47.3532 137.866 45.8528 137.866 43.8843C137.866 42.2267 137.41 40.8193 136.506 39.6651C135.599 38.5109 134.429 37.469 132.993 36.536C131.563 35.6063 130.056 34.6893 128.466 33.7917C126.882 32.8875 125.375 31.8809 123.939 30.778C122.509 29.6687 121.342 28.3606 120.438 26.8538C119.53 25.3405 119.078 23.5291 119.078 21.4163C119.078 18.2039 120.159 15.6038 122.323 13.6193C124.484 11.6283 127.327 10.6312 130.851 10.6312C133.063 10.6312 134.923 10.923 136.429 11.5033C137.933 12.0771 139.087 12.3625 139.892 12.3625C140.302 12.3625 140.604 12.2407 140.802 11.9906L141.174 22.391L140.879 22.4679C140.075 20.3071 138.792 18.5373 137.032 17.1587C135.269 15.7737 133.384 15.0812 131.377 15.0812C129.863 15.0812 128.555 15.5108 127.452 16.3636C126.35 17.2196 125.798 18.5277 125.798 20.2878C125.798 21.7947 126.247 23.0899 127.145 24.1735C128.049 25.2508 129.209 26.2318 130.62 27.1103C132.031 27.9919 133.538 28.8864 135.147 29.7905C136.753 30.6978 138.257 31.7141 139.661 32.8427C141.072 33.9712 142.229 35.3049 143.136 36.8438C144.041 38.3763 144.496 40.2486 144.496 42.4608C144.496 45.2757 143.842 47.6129 142.534 49.4756C141.226 51.3319 139.526 52.7137 137.443 53.6178C135.355 54.5219 133.159 54.9772 130.851 54.9772Z" fill="#F65135"/>
<path d="M179.113 65.0826C176.795 65.0826 175.118 64.6017 174.086 63.6463C173.06 62.6973 172.547 61.665 172.547 60.5557C172.547 59.6996 172.823 58.9943 173.381 58.4397C173.935 57.8914 174.615 57.6189 175.42 57.6189C176.221 57.6189 176.885 57.8658 177.407 58.3627C177.936 58.8661 178.203 59.5201 178.203 60.3248C178.203 60.7769 178.078 61.3059 177.831 61.915C178.129 62.0176 178.427 62.0817 178.728 62.1074C179.036 62.133 179.312 62.1459 179.562 62.1459C182.835 62.1459 185.426 60.8506 187.333 58.2601C189.238 55.6697 190.193 52.1879 190.193 47.8085V37.2542C188.234 36.7508 186.388 36.0583 184.653 35.1767C182.915 34.2982 181.505 33.1569 180.421 31.7526C179.344 30.342 178.805 28.6075 178.805 26.546C178.805 24.5807 179.344 22.936 180.421 21.6087C181.505 20.275 182.903 19.2202 184.615 18.4411C186.323 17.6557 188.084 17.1138 189.898 16.8125C189.693 15.2062 189.35 14.0264 188.872 13.273C188.401 12.5228 187.737 11.9906 186.885 11.6828V11.4648C187.885 11.3622 189.135 11.048 190.642 10.5158C192.155 9.98681 193.624 9.31995 195.054 8.51524C196.49 7.71373 197.561 6.93466 198.272 6.18124L198.49 6.33513C198.189 6.83207 197.977 7.58549 197.849 8.59218C197.727 9.60209 197.644 10.6825 197.593 11.8367C197.541 12.9909 197.516 14.0489 197.516 15.0043V16.6586C199.225 16.8638 200.933 17.2838 202.645 17.9153C204.354 18.5405 205.787 19.4222 206.942 20.5571C208.096 21.6856 208.673 23.154 208.673 24.9558C208.673 26.6165 208.083 27.899 206.903 28.8031C205.723 29.7104 204.354 30.1624 202.799 30.1624C201.789 30.1624 200.818 29.8771 199.888 29.3032C198.955 28.7229 198.442 27.8765 198.349 26.764C198.843 27.0205 199.318 27.1487 199.773 27.1487C200.481 27.1487 201.049 26.8987 201.478 26.3921C201.905 25.8888 202.12 25.3117 202.12 24.6609C202.12 23.3528 201.639 22.3749 200.683 21.7241C199.725 21.0669 198.67 20.6148 197.516 20.3648V34.4585C197.865 34.5098 198.189 34.5354 198.49 34.5354C198.798 34.5354 199.1 34.5354 199.401 34.5354C202.315 34.5354 204.979 33.9199 207.39 32.6888C209.808 31.4577 211.744 29.736 213.2 27.5206C214.662 25.3085 215.393 22.6955 215.393 19.6851C215.393 16.8125 214.822 14.3598 213.687 12.324C212.558 10.2914 211.023 8.63066 209.083 7.34824C207.15 6.06583 204.979 5.12646 202.568 4.52693C200.158 3.92099 197.67 3.61641 195.105 3.61641C191.735 3.61641 188.555 4.09732 185.564 5.05272C182.569 6.0017 180.155 7.25847 178.318 8.82302C176.487 10.3812 175.574 12.0387 175.574 13.7988C175.574 14.5009 175.772 15.1549 176.176 15.7609C176.577 16.3604 177.18 16.6586 177.985 16.6586C178.581 16.6586 179.132 16.4726 179.639 16.0943C180.142 15.7192 180.517 15.28 180.767 14.7734C180.671 16.9888 179.831 18.9028 178.241 20.5186C176.657 22.1281 174.734 22.9296 172.47 22.9296C170.614 22.9296 169.117 22.314 167.982 21.0829C166.853 19.8454 166.289 18.2969 166.289 16.4406C166.289 14.1771 167.052 12.0643 168.584 10.1054C170.123 8.14013 172.246 6.39284 174.958 4.86035C177.677 3.33107 180.806 2.13843 184.345 1.28242C187.891 0.42961 191.655 0 195.631 0C201.357 0 206.371 0.81754 210.673 2.44941C214.973 4.08449 218.329 6.34475 220.74 9.23339C223.158 12.1252 224.37 15.5044 224.37 19.3773C224.37 22.6443 223.613 25.4752 222.1 27.8669C220.593 30.2522 218.605 32.2143 216.136 33.7532C213.674 35.2857 210.972 36.427 208.032 37.1772C205.088 37.9306 202.213 38.3058 199.401 38.3058C199.1 38.3058 198.798 38.2929 198.49 38.2673C198.189 38.2416 197.865 38.2288 197.516 38.2288V45.3975C197.516 49.5718 197.878 52.7778 198.606 55.0156C199.33 57.2534 200.478 58.7763 202.043 59.581L201.209 61.3123C199.446 60.6518 197.638 60.4531 195.785 60.7096C195.836 60.1517 195.682 59.674 195.323 59.2732C194.97 58.8693 194.496 58.6705 193.899 58.6705C192.643 58.6705 192.014 59.3502 192.014 60.7096C192.014 61.0077 192.085 61.2866 192.232 61.5431C190.222 62.1907 188.148 62.9442 186.012 63.8002C183.874 64.653 181.575 65.0826 179.113 65.0826ZM186.808 26.3921C186.808 27.7002 187.131 28.8351 187.782 29.7905C188.439 30.7395 189.244 31.5442 190.193 32.2015V20.9675C189.244 21.4644 188.439 22.1794 187.782 23.1091C187.131 24.0421 186.808 25.1353 186.808 26.3921Z" fill="#F65135"/>
<path d="M227.373 54.0667C228.579 53.6659 229.419 52.8227 229.899 51.5403C230.377 50.2579 230.618 48.2124 230.618 45.3975V20.2109C230.618 17.3896 230.377 15.3441 229.899 14.0681C229.419 12.7857 228.579 11.9393 227.373 11.5289V11.3109H250.905C251.46 11.3109 252.063 11.2596 252.714 11.157C253.371 11.0544 253.797 10.907 253.996 10.7082L250.008 18.8515L249.777 18.7746C250.024 16.665 248.565 15.607 245.404 15.607H237.414V26.9179H237.555C238.11 25.9176 238.841 25.1161 239.748 24.507C240.653 23.901 241.659 23.5965 242.762 23.5965C244.121 23.5965 245.404 23.901 246.609 24.507C247.815 25.1161 249.046 25.4175 250.303 25.4175C251.559 25.4175 252.489 24.9398 253.098 23.9812L253.316 24.0581C252.964 25.4624 252.226 26.8282 251.098 28.1619C249.969 29.4956 248.597 30.1624 246.981 30.1624C246.125 30.1624 245.295 29.9893 244.493 29.6366C243.689 29.2872 242.871 28.9377 242.044 28.5851C241.214 28.226 240.345 28.0464 239.441 28.0464C238.636 28.0464 237.959 28.3254 237.414 28.88V49.7706H245.019C247.129 49.7706 249.027 49.2448 250.713 48.1932C252.406 47.1352 253.602 45.7245 254.304 43.9612L254.599 44.0382L252.573 55.1311C252.213 54.5732 251.483 54.2975 250.38 54.2975H227.373V54.0667Z" fill="#F65135"/>
<path d="M256.559 54.0666C257.764 53.6659 258.604 52.8227 259.085 51.5403C259.563 50.2579 259.803 48.2124 259.803 45.3975V20.2109C259.803 17.3896 259.563 15.3441 259.085 14.0681C258.604 12.7857 257.764 11.9393 256.559 11.5289V11.3109H269.832C275.413 11.3109 279.751 13.0999 282.848 16.6714C285.942 20.2365 287.49 25.2379 287.49 31.6757C287.49 36.302 286.695 40.3127 285.105 43.7047C283.521 47.0999 281.274 49.7161 278.36 51.5531C275.442 53.3838 271.973 54.2975 267.946 54.2975H256.559V54.0666ZM266.6 49.7706H267.574C271.447 49.7706 274.564 48.1515 276.923 44.9102C279.289 41.6625 280.476 37.2991 280.476 31.8167C280.476 26.841 279.379 22.936 277.193 20.0955C275.003 17.2581 272.101 15.8378 268.485 15.8378H266.6V49.7706Z" fill="#F65135"/>
<path d="M290.344 54.0666C291.55 53.6659 292.39 52.8227 292.871 51.5403C293.348 50.2579 293.589 48.2124 293.589 45.3975V20.2109C293.589 17.3896 293.348 15.3441 292.871 14.0681C292.39 12.7857 291.55 11.9393 290.344 11.5289V11.3109H303.617V11.5289C302.412 11.9393 301.569 12.7857 301.091 14.0681C300.62 15.3441 300.385 17.3896 300.385 20.2109V45.3975C300.385 48.2124 300.62 50.2579 301.091 51.5403C301.569 52.8227 302.412 53.6659 303.617 54.0666V54.2975H290.344V54.0666Z" fill="#F65135"/>
<path d="M305.729 54.0666C306.934 53.6659 307.774 52.8227 308.255 51.5403C308.733 50.2579 308.973 48.2124 308.973 45.3975V20.2109C308.973 17.3896 308.733 15.3441 308.255 14.0681C307.774 12.7857 306.934 11.9393 305.729 11.5289V11.3109H319.002C324.583 11.3109 328.921 13.0999 332.018 16.6714C335.112 20.2365 336.661 25.2379 336.661 31.6757C336.661 36.302 335.866 40.3127 334.275 43.7047C332.692 47.0999 330.444 49.7161 327.53 51.5531C324.612 53.3838 321.143 54.2975 317.117 54.2975H305.729V54.0666ZM315.77 49.7706H316.745C320.618 49.7706 323.734 48.1515 326.094 44.9102C328.46 41.6625 329.646 37.2991 329.646 31.8167C329.646 26.841 328.549 22.936 326.363 20.0955C324.173 17.2581 321.272 15.8378 317.655 15.8378H315.77V49.7706Z" fill="#F65135"/>
<path d="M357.622 50.3733C359.074 50.3733 360.254 49.809 361.162 48.6805C362.066 47.552 362.733 46.0451 363.162 44.1536C363.589 42.2652 363.803 40.1909 363.803 37.9339C363.803 35.4203 363.55 32.8298 363.047 30.1624C362.54 27.495 361.822 25.0328 360.892 22.7757C359.969 20.5122 358.853 18.6912 357.545 17.3126C356.237 15.9276 354.778 15.2351 353.172 15.2351C351.71 15.2351 350.511 15.7994 349.581 16.9279C348.658 18.0564 347.982 19.5536 347.555 21.4163C347.126 23.2726 346.914 25.3341 346.914 27.5976C346.914 30.1624 347.161 32.7785 347.658 35.446C348.161 38.107 348.879 40.5692 349.812 42.8327C350.742 45.0993 351.877 46.9236 353.211 48.3086C354.544 49.6872 356.013 50.3733 357.622 50.3733ZM340.271 32.0476C340.271 25.3117 341.605 20.057 344.272 16.2867C346.94 12.5164 350.633 10.6312 355.352 10.6312C358.369 10.6312 361.008 11.5642 363.265 13.4269C365.528 15.2832 367.292 17.8705 368.548 21.1855C369.811 24.5038 370.446 28.3767 370.446 32.8042C370.446 37.1836 369.811 41.0437 368.548 44.3844C367.292 47.7283 365.528 50.3316 363.265 52.1943C361.008 54.0506 358.369 54.9772 355.352 54.9772C352.29 54.9772 349.626 54.0378 347.363 52.1558C345.096 50.2675 343.349 47.6001 342.118 44.1536C340.887 40.7103 340.271 36.6739 340.271 32.0476Z" fill="#F65135"/>
<path d="M386.355 54.9772C383.935 54.9772 381.578 54.4963 379.289 53.5408C377.006 52.5854 375.112 51.1524 373.608 49.2448L376.391 39.0624H376.622C376.92 41.5246 377.622 43.5637 378.725 45.1795C379.834 46.7889 381.142 47.9816 382.649 48.7574C384.162 49.5365 385.65 49.9244 387.112 49.9244C388.821 49.9244 390.292 49.4115 391.523 48.3855C392.754 47.3532 393.37 45.8528 393.37 43.8843C393.37 42.2267 392.915 40.8193 392.011 39.6651C391.103 38.5109 389.933 37.469 388.497 36.536C387.067 35.6063 385.56 34.6893 383.97 33.7917C382.386 32.8875 380.879 31.8809 379.443 30.778C378.013 29.6687 376.846 28.3606 375.942 26.8538C375.035 25.3405 374.583 23.5291 374.583 21.4163C374.583 18.2039 375.663 15.6038 377.827 13.6193C379.988 11.6283 382.832 10.6312 386.355 10.6312C388.567 10.6312 390.427 10.923 391.934 11.5033C393.437 12.0771 394.591 12.3625 395.396 12.3625C395.807 12.3625 396.108 12.2407 396.307 11.9906L396.679 22.391L396.384 22.4679C395.579 20.3071 394.296 18.5373 392.536 17.1587C390.773 15.7737 388.888 15.0812 386.881 15.0812C385.368 15.0812 384.06 15.5108 382.957 16.3636C381.854 17.2196 381.302 18.5277 381.302 20.2878C381.302 21.7947 381.751 23.0899 382.649 24.1735C383.553 25.2508 384.714 26.2318 386.124 27.1103C387.535 27.9919 389.042 28.8864 390.651 29.7905C392.257 30.6978 393.761 31.7141 395.165 32.8427C396.576 33.9712 397.733 35.3049 398.641 36.8438C399.545 38.3763 400 40.2486 400 42.4608C400 45.2757 399.346 47.6129 398.038 49.4756C396.73 51.3319 395.031 52.7137 392.947 53.6178C390.86 54.5219 388.663 54.9772 386.355 54.9772Z" fill="#F65135"/>
</svg>
