<svg width="350" height="40" viewBox="0 0 350 40" fill="none" xmlns="http://www.w3.org/2000/svg">
<g clip-path="url(#clip0_2160_127)">
<path d="M6.00517 37.7414C4.67234 37.7414 3.70603 37.4637 3.10996 36.9121C2.51759 36.3586 2.2214 35.7644 2.2214 35.1276C2.2214 34.6333 2.37875 34.2261 2.6953 33.9058C3.01555 33.5893 3.408 33.4319 3.87264 33.4319C4.33543 33.4319 4.72047 33.5744 5.02776 33.8614C5.3332 34.152 5.48685 34.5296 5.48685 34.9943C5.48685 35.2553 5.4128 35.5607 5.26471 35.9125C5.44242 35.9661 5.61643 36.0013 5.79044 36.0161C5.96259 36.0309 6.12364 36.0383 6.27174 36.0383C8.15621 36.0383 9.6501 35.2905 10.7515 33.7947C11.8511 32.3027 12.4028 30.296 12.4028 27.7674V19.8518C11.6216 20.1387 10.9996 20.4794 10.5368 20.8737C10.0722 21.2643 9.84077 21.7511 9.84077 22.3324C9.84077 22.6249 9.93333 22.8785 10.1221 23.095C10.3091 23.3135 10.5479 23.4486 10.8404 23.5023C10.4054 23.854 9.95554 24.1021 9.49275 24.2502C9.02811 24.3946 8.59124 24.4649 8.18213 24.4649C7.42686 24.4649 6.82338 24.2483 6.3754 23.8133C5.92557 23.3746 5.70158 22.7915 5.70158 22.0658C5.70158 21.1976 6.00517 20.4886 6.61235 19.9407C7.22323 19.389 8.03774 18.9392 9.05588 18.593C10.0722 18.2432 11.1884 17.9377 12.4028 17.6749V14.3206C12.4028 12.5249 12.3509 11.1255 12.2473 10.1221C12.1473 9.12066 11.9603 8.3802 11.6845 7.90075C11.4124 7.42315 11.0144 7.09735 10.4924 6.92334V6.79006C11.0699 6.73637 11.7919 6.55681 12.6619 6.24952C13.5357 5.94408 14.3835 5.55904 15.2091 5.0944C16.0384 4.63161 16.6549 4.18178 17.0603 3.74675L17.1936 3.83561C17.0196 4.12254 16.8974 4.55756 16.8233 5.13882C16.7493 5.71638 16.6975 6.34208 16.6678 7.01219C16.6419 7.67861 16.6308 8.28949 16.6308 8.84114V16.8011C18.2543 16.4568 19.7852 16.0366 21.2217 15.5423C22.6582 15.0499 23.8318 14.3465 24.7463 13.432C25.6589 12.5194 26.1161 11.3069 26.1161 9.79633C26.1161 8.43388 25.794 7.26765 25.1535 6.29395C24.5167 5.32209 23.6745 4.53905 22.6286 3.94668C21.5864 3.35061 20.4553 2.91373 19.2372 2.63606C18.0173 2.36024 16.827 2.2214 15.6682 2.2214C14.7982 2.2214 13.7763 2.31766 12.6027 2.51018C11.4272 2.699 10.2795 3.0248 9.15954 3.48759C8.04329 3.95223 7.10846 4.56867 6.35319 5.33875C5.60162 6.10513 5.22768 7.05292 5.22768 8.18213C5.22768 8.6227 5.34246 9.00959 5.5757 9.34465C5.8071 9.67601 6.15511 9.84076 6.61975 9.84076C6.99369 9.84076 7.31949 9.73339 7.59717 9.51496C7.87299 9.29837 8.09698 9.04476 8.27099 8.75228C8.21175 10.0259 7.74711 11.1366 6.87892 12.0844C6.00887 13.0285 4.90558 13.4986 3.56905 13.4986C2.46761 13.4986 1.59571 13.1358 0.955212 12.4102C0.318414 11.6845 1.52588e-05 10.7849 1.52588e-05 9.70748C1.52588e-05 8.31541 0.355437 7.09179 1.06628 6.03478C1.77713 4.97407 2.71937 4.06515 3.89485 3.30988C5.06848 2.55461 6.34578 1.93817 7.72304 1.45872C9.10401 0.981125 10.485 0.633108 11.8622 0.414671C13.2395 0.198086 14.465 0.0888672 15.5423 0.0888672C16.7308 0.0888672 18.0303 0.162913 19.4372 0.311006C20.844 0.455397 22.2509 0.71641 23.6578 1.0959C25.0647 1.47168 26.3475 2.00667 27.5082 2.7027C28.667 3.39874 29.5963 4.28544 30.2924 5.36096C30.9884 6.43278 31.3364 7.75081 31.3364 9.31503C31.3364 10.6775 31.0365 11.8456 30.4404 12.8174C29.8481 13.7911 29.0428 14.6056 28.0265 15.2609C27.014 15.9126 25.8829 16.4568 24.6352 16.89C25.3016 19.7926 26.1698 22.5008 27.2416 25.0128C28.3172 27.5212 29.5001 29.7259 30.7885 31.6252C32.0806 33.5245 33.3671 35.0035 34.6463 36.0605C35.9236 37.1213 37.0843 37.6525 38.1265 37.6525C38.7929 37.6525 39.2557 37.5359 39.5185 37.3045C39.7795 37.0713 39.911 36.8251 39.911 36.5641C39.911 36.2123 39.7499 35.9439 39.4297 35.757C39.1131 35.5681 38.7521 35.5459 38.3486 35.6903C38.6337 35.2849 39.0243 34.9887 39.5185 34.8018C40.0109 34.6129 40.52 34.5204 41.0439 34.5204C41.7399 34.5204 42.3638 34.6925 42.9172 35.0387C43.4689 35.3886 43.7466 35.9384 43.7466 36.6899C43.7466 37.4452 43.3097 38.0839 42.4359 38.6077C41.5659 39.1298 40.4071 39.3926 38.9558 39.3926C37.1287 39.3926 35.2646 38.8391 33.3653 37.734C31.4641 36.6326 29.6352 35.1165 27.8784 33.1876C26.1198 31.2586 24.5241 29.0095 23.0877 26.4419C21.6512 23.8762 20.4553 21.1402 19.5038 18.2376C19.0096 18.3561 18.5227 18.4597 18.0451 18.5486C17.5656 18.6338 17.0936 18.7189 16.6308 18.8078V26.3753C16.6308 28.7855 16.84 30.633 17.2602 31.9214C17.6786 33.2135 18.3376 34.0928 19.2372 34.5574L18.7633 35.5644C17.7452 35.1831 16.6993 35.0683 15.6238 35.2164C15.6534 34.8943 15.5664 34.6185 15.3646 34.3871C15.161 34.1539 14.8852 34.0391 14.5353 34.0391C13.8096 34.0391 13.4468 34.4315 13.4468 35.2164C13.4468 35.3886 13.4913 35.5459 13.5801 35.6903C12.4194 36.0698 11.2217 36.5067 9.98886 37.0009C8.75414 37.4933 7.42686 37.7414 6.00517 37.7414Z" fill="#F65135"/>
<path d="M33.4669 31.3808C34.1629 31.1494 34.6479 30.6663 34.9256 29.9295C35.2014 29.1891 35.3402 28.0043 35.3402 26.3753V11.84C35.3402 10.2166 35.2014 9.03367 34.9256 8.2932C34.6479 7.55274 34.1629 7.06774 33.4669 6.83449V6.70861H47.0469C47.3672 6.70861 47.7152 6.67899 48.091 6.61976C48.4705 6.56052 48.7167 6.47537 48.8315 6.3606L46.5286 11.0551L46.3953 11.0107C46.5379 9.79634 45.6956 9.18916 43.8704 9.18916H39.2573V15.7126H39.3461C39.6608 15.1351 40.081 14.6741 40.6049 14.328C41.1269 13.9781 41.7082 13.8022 42.345 13.8022C43.1299 13.8022 43.8704 13.9781 44.5664 14.328C45.2624 14.6741 45.9733 14.8463 46.6989 14.8463C47.4246 14.8463 47.9614 14.5705 48.3131 14.017L48.439 14.0614C48.2354 14.8759 47.8096 15.6682 47.158 16.4383C46.5064 17.2047 45.716 17.586 44.7885 17.586C44.2943 17.586 43.8148 17.4861 43.352 17.2824C42.8874 17.0806 42.4153 16.8789 41.9377 16.6752C41.4583 16.4679 40.9566 16.3642 40.4346 16.3642C39.97 16.3642 39.5775 16.5253 39.2573 16.8455V28.9003H43.6556C44.8737 28.9003 45.9677 28.5967 46.9359 27.9895C47.9077 27.3786 48.5982 26.566 49.0092 25.5534L49.1795 25.5978L48.0095 31.9954C47.8022 31.6733 47.3802 31.5141 46.7434 31.5141H33.4669V31.3808Z" fill="#F65135"/>
<path d="M57.84 31.9066C56.448 31.9066 55.0892 31.6326 53.7675 31.0846C52.4495 30.533 51.3554 29.7037 50.4872 28.5967L52.094 22.7248H52.2273C52.3995 24.1465 52.8049 25.322 53.4417 26.2494C54.0822 27.1787 54.8375 27.8673 55.7075 28.3153C56.5813 28.7651 57.4365 28.9891 58.2769 28.9891C59.2636 28.9891 60.1133 28.6929 60.8241 28.1006C61.535 27.5045 61.8904 26.64 61.8904 25.509C61.8904 24.5519 61.6275 23.7393 61.1055 23.0728C60.5816 22.4027 59.9059 21.7992 59.0766 21.2661C58.251 20.7293 57.3828 20.198 56.4702 19.6741C55.5557 19.1521 54.6857 18.5708 53.8564 17.934C53.0307 17.2972 52.3569 16.5457 51.8349 15.6756C51.311 14.8019 51.05 13.756 51.05 12.536C51.05 10.6812 51.6738 9.1799 52.9234 8.03404C54.171 6.89002 55.8112 6.31616 57.84 6.31616C59.1173 6.31616 60.191 6.48462 61.0611 6.81968C61.9292 7.15103 62.5975 7.31579 63.0677 7.31579C63.2991 7.31579 63.4713 7.24174 63.586 7.09365L63.8008 13.1062L63.6305 13.1432C63.1658 11.8993 62.4254 10.8774 61.4091 10.0777C60.3909 9.27801 59.3025 8.87816 58.1436 8.87816C57.2736 8.87816 56.5183 9.12622 55.8778 9.61863C55.241 10.1129 54.9226 10.8682 54.9226 11.8844C54.9226 12.7545 55.1836 13.5024 55.7075 14.128C56.2295 14.75 56.896 15.3165 57.7068 15.8237C58.5213 16.3328 59.3913 16.8492 60.3206 17.3713C61.248 17.8896 62.1162 18.4783 62.927 19.1336C63.7415 19.7852 64.4098 20.5553 64.9337 21.4438C65.4557 22.3287 65.7186 23.406 65.7186 24.6796C65.7186 26.305 65.3409 27.6544 64.5857 28.73C63.8304 29.8018 62.8493 30.5996 61.646 31.1217C60.4465 31.6437 59.1766 31.9066 57.84 31.9066Z" fill="#F65135"/>
<path d="M66.9346 31.3808C67.6307 31.1494 68.1157 30.6663 68.3933 29.9295C68.6692 29.1891 68.808 28.0043 68.808 26.3753V11.84C68.808 10.2166 68.6692 9.03367 68.3933 8.2932C68.1157 7.55274 67.6307 7.06774 66.9346 6.83449V6.70861H80.5147C80.835 6.70861 81.183 6.67899 81.5588 6.61976C81.9382 6.56052 82.1845 6.47537 82.2992 6.3606L79.9964 11.0551L79.8631 11.0107C80.0056 9.79634 79.1634 9.18916 77.3381 9.18916H72.725V15.7126H72.8139C73.1286 15.1351 73.5488 14.6741 74.0727 14.328C74.5947 13.9781 75.176 13.8022 75.8128 13.8022C76.5977 13.8022 77.3381 13.9781 78.0342 14.328C78.7302 14.6741 79.441 14.8463 80.1667 14.8463C80.8923 14.8463 81.4292 14.5705 81.7809 14.017L81.9068 14.0614C81.7032 14.8759 81.2774 15.6682 80.6258 16.4383C79.9742 17.2047 79.1837 17.586 78.2563 17.586C77.762 17.586 77.2826 17.4861 76.8198 17.2824C76.3552 17.0806 75.8831 16.8789 75.4055 16.6752C74.9261 16.4679 74.4244 16.3642 73.9024 16.3642C73.4377 16.3642 73.0453 16.5253 72.725 16.8455V28.9003H77.1234C78.3414 28.9003 79.4355 28.5967 80.4036 27.9895C81.3755 27.3786 82.066 26.566 82.4769 25.5534L82.6472 25.5978L81.4773 31.9954C81.27 31.6733 80.8479 31.5141 80.2111 31.5141H66.9346V31.3808Z" fill="#F65135"/>
<path d="M83.7773 31.381C84.4733 31.1496 84.9583 30.6664 85.236 29.9297C85.5118 29.1892 85.6506 28.0045 85.6506 26.3754V11.8401C85.6506 10.2167 85.5118 9.03379 85.236 8.29333C84.9583 7.55287 84.4733 7.06786 83.7773 6.83462V6.70874H94.3585C96.4762 6.70874 98.1719 7.26038 99.4455 8.35997C100.723 9.46141 101.363 10.8387 101.363 12.4918C101.363 13.5691 101.1 14.528 100.578 15.3722C100.055 16.2126 99.3511 16.8642 98.4681 17.327C97.5832 17.7916 96.6039 18.0082 95.5284 17.9786C96.4855 19.1689 97.3981 20.6202 98.2681 22.3325C99.1419 24.0467 99.8546 25.7571 100.408 27.4639C101.104 29.6409 101.915 30.9478 102.844 31.381V31.5142H95.447L95.4025 31.381C96.4133 30.9182 96.7021 29.7723 96.2689 27.9452C95.9227 26.4643 95.4211 24.9426 94.7657 23.3766C94.1141 21.8068 93.3533 20.3481 92.4851 19.0004C91.6151 17.6528 90.6432 16.6013 89.5677 15.8461V26.3754C89.5677 28.0045 89.7047 29.1892 89.9824 29.9297C90.2582 30.6664 90.745 31.1496 91.4411 31.381V31.5142H83.7773V31.381ZM89.5677 9.96678C89.5677 11.0738 89.7769 12.0549 90.1971 12.9138C90.621 13.7691 91.1819 14.4355 91.8779 14.9131C92.574 15.3925 93.2996 15.6313 94.0549 15.6313C95.036 15.6313 95.782 15.3407 96.2911 14.7576C96.7983 14.1763 97.0538 13.5099 97.0538 12.7583C97.0538 11.7124 96.6243 10.8405 95.7654 10.1445C94.9101 9.44845 93.8031 9.10044 92.4407 9.10044H89.5677V9.96678Z" fill="#F65135"/>
<path d="M104.369 11.1441C103.987 9.69281 103.623 8.66356 103.273 8.05638C102.927 7.4455 102.462 7.03825 101.881 6.83462V6.70874H109.456V6.83462C108.819 7.06786 108.441 7.56768 108.323 8.33776C108.208 9.10784 108.339 10.2759 108.715 11.8401L112.203 26.642L115.683 11.8401C116.057 10.2759 116.186 9.10784 116.068 8.33776C115.953 7.56768 115.579 7.06786 114.942 6.83462V6.70874H121.473V6.83462C120.92 7.03825 120.461 7.4455 120.096 8.05638C119.735 8.66356 119.367 9.69281 118.993 11.1441L113.943 31.5142H109.411L104.369 11.1441Z" fill="#F65135"/>
<path d="M118.68 31.381C119.263 31.1792 119.726 30.7812 120.072 30.1888C120.422 29.5927 120.785 28.5524 121.161 27.0715L125.085 12.0623C125.518 10.4037 125.714 9.17078 125.67 8.35997C125.626 7.54546 125.355 7.03825 124.863 6.83462V6.70874H131.216L136.703 27.0715C137.047 28.4691 137.401 29.478 137.762 30.1C138.126 30.722 138.6 31.1496 139.183 31.381V31.5142H131.653V31.381C132.264 31.1496 132.641 30.6516 132.786 29.8852C132.928 29.1151 132.797 27.9452 132.393 26.3754L132.134 25.4202H124.73L124.515 26.3754C124.139 27.9156 124.008 29.0707 124.122 29.8408C124.241 30.6072 124.619 31.12 125.255 31.381V31.5142H118.68V31.381ZM125.389 22.8064H131.483L128.262 11.0108L125.389 22.8064Z" fill="#F65135"/>
<path d="M172.13 38.9113C169.138 38.9113 166.358 38.3597 163.792 37.2601C161.224 36.1587 158.99 34.6203 157.091 32.647C155.19 30.6737 153.709 28.3579 152.648 25.7015C151.591 23.0469 151.063 20.1535 151.063 17.0232C151.063 13.8004 151.685 10.9052 152.929 8.33761C154.177 5.77191 155.991 3.73934 158.372 2.2436C160.75 0.747867 163.609 0 166.946 0C167.963 0 169.066 0.109218 170.256 0.325804C171.445 0.54424 172.583 0.907067 173.67 1.41428C174.76 1.92335 175.647 2.60643 176.328 3.46537C177.009 4.3206 177.35 5.38687 177.35 6.66417C177.35 7.67675 177.131 8.54494 176.698 9.2706C176.263 9.99625 175.699 10.6071 175.003 11.0995C172.796 12.6989 170.887 14.3187 169.279 15.957C167.668 17.5971 166.428 19.141 165.554 20.5923C164.684 22.0436 164.251 23.3357 164.251 24.4649C164.251 24.7814 164.336 25.0924 164.51 25.3979C164.688 25.7052 164.964 25.857 165.34 25.857C165.66 25.857 165.913 25.72 166.102 25.4423C166.289 25.1665 166.398 24.8833 166.428 24.5908C166.541 24.9425 166.635 25.2998 166.709 25.6644C166.783 26.0254 166.82 26.3938 166.82 26.7677C166.82 27.5822 166.58 28.3671 166.102 29.1224C165.623 29.8777 164.919 30.2553 163.992 30.2553C163.207 30.2553 162.574 29.9147 162.096 29.2335C161.617 28.5485 161.378 27.6692 161.378 26.5974C161.378 24.8555 161.863 23.1506 162.837 21.4808C163.809 19.8129 165.047 18.2191 166.554 16.6974C168.064 15.1721 169.645 13.7856 171.3 12.536C170.895 12.5953 170.495 12.6471 170.101 12.6915C169.71 12.736 169.312 12.7582 168.909 12.7582C168.242 12.7582 167.472 12.6878 166.598 12.5434C165.728 12.3953 164.88 12.1491 164.051 11.803C163.225 11.4531 162.544 10.9885 162.007 10.4109C161.474 9.82964 161.208 9.08548 161.208 8.18211C161.208 7.201 161.567 6.46979 162.289 5.99034C163.014 5.51275 163.829 5.2721 164.732 5.2721C165.458 5.2721 166.154 5.44055 166.82 5.77561C167.487 6.10697 167.89 6.66231 168.035 7.44165C167.718 7.21026 167.385 7.09363 167.035 7.09363C166.63 7.09363 166.289 7.21766 166.013 7.46387C165.736 7.71192 165.599 8.03958 165.599 8.44868C165.599 8.99662 165.786 9.43905 166.161 9.77411C166.541 10.111 167 10.3498 167.539 10.4924C168.076 10.6367 168.562 10.7071 168.997 10.7071C170.186 10.7071 171.178 10.3443 171.974 9.61861C172.774 8.89296 173.174 7.92295 173.174 6.70859C173.174 5.66269 172.852 4.8056 172.211 4.13919C171.574 3.47277 170.791 2.97296 169.864 2.63605C168.934 2.30099 168.022 2.13253 167.124 2.13253C165.09 2.13253 163.362 2.60458 161.941 3.54682C160.519 4.49091 159.373 5.72378 158.505 7.24913C157.635 8.77448 157.004 10.4313 156.609 12.2176C156.219 14.0003 156.024 15.7459 156.024 17.4527C156.024 20.272 156.413 22.8933 157.194 25.3164C157.979 27.7359 159.068 29.8444 160.46 31.64C161.856 33.4412 163.498 34.8425 165.384 35.8458C167.268 36.8473 169.316 37.3489 171.522 37.3489C171.807 37.3489 172.198 37.3341 172.692 37.3045C173.185 37.2749 173.694 37.2009 174.218 37.0824C174.74 36.9676 175.182 36.788 175.543 36.5418C175.908 36.2938 176.091 35.968 176.091 35.5644C176.091 35.3312 175.995 35.1424 175.802 34.9943C175.613 34.8499 175.404 34.7795 175.173 34.7795C174.94 34.7795 174.723 34.8351 174.521 34.9498C174.871 34.313 175.38 33.8114 176.047 33.4467C176.713 33.0857 177.409 32.9062 178.135 32.9062C178.746 32.9062 179.305 33.0783 179.808 33.4245C180.315 33.7744 180.571 34.2834 180.571 34.9498C180.571 35.794 180.245 36.4752 179.593 36.9935C178.942 37.5156 178.144 37.9154 177.202 38.1931C176.258 38.4689 175.321 38.6559 174.388 38.7558C173.459 38.8595 172.707 38.9113 172.13 38.9113Z" fill="#F65135"/>
<path d="M187.404 29.2483C188.243 29.2483 188.924 28.9225 189.448 28.2709C189.97 27.6193 190.355 26.7511 190.603 25.6645C190.849 24.5741 190.973 23.3746 190.973 22.0658C190.973 20.6201 190.827 19.1299 190.536 17.5934C190.244 16.0532 189.829 14.6297 189.292 13.3209C188.759 12.014 188.115 10.9626 187.36 10.1666C186.604 9.36687 185.762 8.96702 184.835 8.96702C183.994 8.96702 183.306 9.29653 182.769 9.95183C182.23 10.6034 181.838 11.4679 181.591 12.5435C181.343 13.6153 181.221 14.8019 181.221 16.1051C181.221 17.586 181.366 19.0966 181.658 20.6367C181.949 22.1732 182.361 23.5949 182.895 24.9018C183.431 26.205 184.087 27.2565 184.857 28.0562C185.627 28.8521 186.475 29.2483 187.404 29.2483ZM177.393 18.6745C177.393 14.7852 178.159 11.7549 179.696 9.5816C181.236 7.40464 183.37 6.31616 186.101 6.31616C187.837 6.31616 189.359 6.85485 190.662 7.93037C191.969 9.00219 192.987 10.4961 193.713 12.4102C194.438 14.3261 194.801 16.5605 194.801 19.1114C194.801 21.6345 194.438 23.8614 193.713 25.7903C192.987 27.7211 191.969 29.2242 190.662 30.2998C189.359 31.3716 187.837 31.9066 186.101 31.9066C184.327 31.9066 182.787 31.3642 181.48 30.2775C180.177 29.1872 179.17 27.6489 178.459 25.6645C177.748 23.6763 177.393 21.3457 177.393 18.6745Z" fill="#F65135"/>
<path d="M196.453 31.3809C197.064 31.1791 197.501 30.8181 197.764 30.2998C198.025 29.7778 198.182 29.1965 198.238 28.5597C198.297 27.9192 198.327 27.3361 198.327 26.8122V12.0178C198.327 10.5369 198.181 9.39285 197.89 8.58205C197.597 7.76754 197.12 7.18628 196.453 6.83456V6.70868C198.951 6.56058 201.098 6.96599 202.895 7.92304C204.697 8.88194 206.192 10.2166 207.383 11.9289C208.571 13.6431 209.515 15.5424 210.211 17.6305V11.4032C210.211 10.8849 210.182 10.3073 210.122 9.67053C210.063 9.03003 209.902 8.44691 209.641 7.92304C209.378 7.40101 208.945 7.03818 208.338 6.83456V6.70868H215.217V6.83456C214.604 7.03818 214.167 7.40101 213.906 7.92304C213.643 8.44691 213.484 9.03003 213.425 9.67053C213.369 10.3073 213.343 10.8849 213.343 11.4032V31.5142H210.256C210.256 29.1058 210.028 26.8011 209.574 24.5983C209.125 22.3917 208.501 20.4109 207.701 18.6523C206.905 16.8956 205.97 15.4591 204.895 14.3428C203.823 13.2285 202.677 12.5398 201.459 12.277V26.8122C201.459 27.3361 201.489 27.9192 201.548 28.5597C201.607 29.1965 201.766 29.7778 202.029 30.2998C202.29 30.8181 202.725 31.1791 203.332 31.3809V31.5142H196.453V31.3809Z" fill="#F65135"/>
<path d="M216.343 31.3808C217.039 31.1494 217.524 30.6663 217.801 29.9295C218.077 29.1891 218.216 28.0043 218.216 26.3753V11.84C218.216 10.2166 218.077 9.03367 217.801 8.2932C217.524 7.55274 217.039 7.06774 216.343 6.83449V6.70861H230.182C230.502 6.70861 230.85 6.67899 231.226 6.61976C231.605 6.56052 231.852 6.47537 231.966 6.3606L229.664 11.0551L229.53 11.0107C229.678 9.79634 228.836 9.18916 227.005 9.18916H222.133V16.1051H222.222C222.537 15.5275 222.957 15.0666 223.481 14.7204C224.003 14.3706 224.584 14.1947 225.221 14.1947C226.006 14.1947 226.746 14.3706 227.442 14.7204C228.138 15.0666 228.849 15.2387 229.575 15.2387C230.3 15.2387 230.837 14.9629 231.189 14.4094L231.315 14.4539C231.111 15.2647 230.685 16.0533 230.034 16.8233C229.382 17.5934 228.592 17.9785 227.664 17.9785C227.17 17.9785 226.691 17.8785 226.228 17.6749C225.763 17.4731 225.291 17.2713 224.814 17.0677C224.334 16.8604 223.832 16.7567 223.31 16.7567C222.846 16.7567 222.453 16.9177 222.133 17.238V26.3753C222.133 28.0043 222.27 29.1891 222.548 29.9295C222.824 30.6663 223.31 31.1494 224.006 31.3808V31.5141H216.343V31.3808Z" fill="#F65135"/>
<path d="M232.837 31.381C233.533 31.1496 234.018 30.6664 234.296 29.9297C234.572 29.1892 234.711 28.0045 234.711 26.3754V11.8401C234.711 10.2167 234.572 9.03379 234.296 8.29333C234.018 7.55287 233.533 7.06786 232.837 6.83462V6.70874H240.501V6.83462C239.805 7.06786 239.318 7.55287 239.042 8.29333C238.765 9.03379 238.628 10.2167 238.628 11.8401V26.3754C238.628 28.0045 238.765 29.1892 239.042 29.9297C239.318 30.6664 239.805 31.1496 240.501 31.381V31.5142H232.837V31.381Z" fill="#F65135"/>
<path d="M241.715 31.381C242.412 31.1496 242.897 30.6664 243.174 29.9297C243.45 29.1892 243.589 28.0045 243.589 26.3754V11.8401C243.589 10.2167 243.45 9.03379 243.174 8.29333C242.897 7.55287 242.412 7.06786 241.715 6.83462V6.70874H252.297C254.414 6.70874 256.11 7.26038 257.384 8.35997C258.661 9.46141 259.301 10.8387 259.301 12.4918C259.301 13.5691 259.039 14.528 258.517 15.3722C257.993 16.2126 257.289 16.8642 256.406 17.327C255.521 17.7916 254.542 18.0082 253.467 17.9786C254.424 19.1689 255.336 20.6202 256.206 22.3325C257.08 24.0467 257.793 25.7571 258.346 27.4639C259.042 29.6409 259.853 30.9478 260.782 31.381V31.5142H253.385L253.341 31.381C254.352 30.9182 254.64 29.7723 254.207 27.9452C253.861 26.4643 253.359 24.9426 252.704 23.3766C252.052 21.8068 251.292 20.3481 250.423 19.0004C249.553 17.6528 248.581 16.6013 247.506 15.8461V26.3754C247.506 28.0045 247.643 29.1892 247.921 29.9297C248.196 30.6664 248.683 31.1496 249.379 31.381V31.5142H241.715V31.381ZM247.506 9.96678C247.506 11.0738 247.715 12.0549 248.135 12.9138C248.559 13.7691 249.12 14.4355 249.816 14.9131C250.512 15.3925 251.238 15.6313 251.993 15.6313C252.974 15.6313 253.72 15.3407 254.229 14.7576C254.737 14.1763 254.992 13.5099 254.992 12.7583C254.992 11.7124 254.563 10.8405 253.704 10.1445C252.848 9.44845 251.741 9.10044 250.379 9.10044H247.506V9.96678Z" fill="#F65135"/>
<path d="M260.522 31.381C261.243 31.1496 261.755 30.6664 262.063 29.9297C262.368 29.1892 262.566 28.0045 262.655 26.3754L263.432 11.8401C263.521 10.2167 263.442 9.03379 263.196 8.29333C262.947 7.55287 262.492 7.06786 261.826 6.83462V6.70874H268.134L273.051 16.6309L277.931 6.70874H283.803V6.83462C283.136 7.06786 282.679 7.55287 282.433 8.29333C282.185 9.03379 282.107 10.2167 282.196 11.8401L282.981 26.3754C283.064 28.0045 283.258 29.1892 283.566 29.9297C283.871 30.6664 284.388 31.1496 285.113 31.381V31.5142H277.449V31.381C278.116 31.1496 278.571 30.6664 278.819 29.9297C279.065 29.1892 279.147 28.0045 279.064 26.3754L278.279 12.2326L272.399 24.1985L266.528 12.3659L265.787 26.3754C265.698 28.0045 265.776 29.1892 266.024 29.9297C266.27 30.6664 266.728 31.1496 267.394 31.381V31.5142H260.522V31.381Z" fill="#F65135"/>
<path d="M284.409 31.381C284.992 31.1792 285.455 30.7812 285.801 30.1888C286.151 29.5927 286.513 28.5524 286.889 27.0715L290.814 12.0623C291.247 10.4037 291.443 9.17078 291.399 8.35997C291.354 7.54546 291.084 7.03825 290.591 6.83462V6.70874H296.945L302.431 27.0715C302.776 28.4691 303.129 29.478 303.49 30.1C303.855 30.722 304.329 31.1496 304.912 31.381V31.5142H297.382V31.381C297.992 31.1496 298.37 30.6516 298.514 29.8852C298.657 29.1151 298.526 27.9452 298.122 26.3754L297.863 25.4202H290.458L290.243 26.3754C289.868 27.9156 289.736 29.0707 289.851 29.8408C289.969 30.6072 290.347 31.12 290.984 31.381V31.5142H284.409V31.381ZM291.117 22.8064H297.211L293.99 11.0108L291.117 22.8064Z" fill="#F65135"/>
<path d="M304.647 31.381C305.343 31.1496 305.828 30.6664 306.106 29.9297C306.382 29.1892 306.52 28.0045 306.52 26.3754V11.8401C306.52 10.2167 306.382 9.03379 306.106 8.29333C305.828 7.55287 305.343 7.06786 304.647 6.83462V6.70874H312.311C315.528 6.70874 318.029 7.73798 319.812 9.79647C321.598 11.855 322.492 14.7428 322.492 18.4599C322.492 21.1256 322.035 23.4395 321.122 25.398C320.208 27.3584 318.91 28.8689 317.228 29.9297C315.543 30.9867 313.542 31.5142 311.222 31.5142H304.647V31.381ZM310.438 28.9004H311C313.236 28.9004 315.036 27.9656 316.398 26.0941C317.764 24.2244 318.449 21.7068 318.449 18.5413C318.449 15.6683 317.816 13.4136 316.554 11.7735C315.289 10.1352 313.614 9.31517 311.526 9.31517H310.438V28.9004Z" fill="#F65135"/>
<path d="M321.75 31.381C322.333 31.1792 322.796 30.7812 323.142 30.1888C323.492 29.5927 323.854 28.5524 324.23 27.0715L328.155 12.0623C328.588 10.4037 328.784 9.17078 328.74 8.35997C328.695 7.54546 328.425 7.03825 327.933 6.83462V6.70874H334.286L339.773 27.0715C340.117 28.4691 340.47 29.478 340.831 30.1C341.196 30.722 341.67 31.1496 342.253 31.381V31.5142H334.723V31.381C335.333 31.1496 335.711 30.6516 335.855 29.8852C335.998 29.1151 335.867 27.9452 335.463 26.3754L335.204 25.4202H327.799L327.584 26.3754C327.209 27.9156 327.077 29.0707 327.192 29.8408C327.311 30.6072 327.688 31.12 328.325 31.381V31.5142H321.75V31.381ZM328.458 22.8064H334.552L331.331 11.0108L328.458 22.8064Z" fill="#F65135"/>
<path d="M344.691 9.61876C344.572 7.96568 344.195 7.03825 343.558 6.83462V6.70874H350V6.83462C349.363 7.03825 348.986 7.96568 348.867 9.61876L347.734 24.9019H345.824L344.691 9.61876ZM344.424 29.4706C344.424 28.7745 344.648 28.2025 345.098 27.7527C345.552 27.2992 346.098 27.0715 346.735 27.0715C347.401 27.0715 347.958 27.2992 348.408 27.7527C348.856 28.2025 349.082 28.7745 349.082 29.4706C349.082 30.137 348.856 30.696 348.408 31.144C347.958 31.592 347.401 31.8178 346.735 31.8178C346.098 31.8178 345.552 31.592 345.098 31.144C344.648 30.696 344.424 30.137 344.424 29.4706Z" fill="#F65135"/>
</g>
<defs>
<clipPath id="clip0_2160_127">
<rect width="350" height="39.3926" fill="white"/>
</clipPath>
</defs>
</svg>
