<svg width="534" height="62" viewBox="0 0 534 62" fill="none" xmlns="http://www.w3.org/2000/svg">
<g clip-path="url(#clip0_2071_14)">
<path d="M0 49.4005C1.36787 48.9444 2.32101 47.9922 2.86671 46.5401C3.40876 45.0807 3.68161 42.7456 3.68161 39.535V10.8871C3.68161 7.68743 3.40876 5.35605 2.86671 3.89666C2.32101 2.43727 1.36787 1.48136 0 1.02166V0.77356H27.1973C27.8267 0.77356 28.5106 0.715185 29.2491 0.598433C29.9949 0.481682 30.4788 0.313852 30.7043 0.0876465L26.1787 9.34019L25.9168 9.25262C26.2078 6.85922 24.5525 5.66252 20.9546 5.66252H11.3795V19.2932H11.5541C12.1726 18.1549 12.9984 17.2464 14.0279 16.5642C15.0538 15.8746 16.1962 15.528 17.4476 15.528C18.9901 15.528 20.4453 15.8746 21.8132 16.5642C23.181 17.2464 24.578 17.5857 26.0041 17.5857C27.4302 17.5857 28.4852 17.0421 29.1764 15.9512L29.4237 16.0388C29.0236 17.6368 28.1868 19.1911 26.9063 20.7088C25.6257 22.2266 24.0723 22.9855 22.2497 22.9855C21.2784 22.9855 20.3361 22.7885 19.4267 22.3871C18.5135 21.9895 17.5859 21.5918 16.6473 21.1904C15.705 20.7818 14.7192 20.5775 13.6932 20.5775C12.7801 20.5775 12.0089 20.8949 11.3795 21.5261V39.535C11.3795 42.7456 11.6487 45.0807 12.1944 46.5401C12.7365 47.9922 13.6932 48.9444 15.0611 49.4005V49.6632H0V49.4005Z" fill="#FFF4E5"/>
<path d="M25.9128 49.4005C27.0588 49.0028 27.9683 48.2184 28.6486 47.0508C29.3362 45.876 30.0492 43.8256 30.7877 40.9068L38.5002 11.325C39.3514 8.05592 39.7371 5.62603 39.6497 4.028C39.5624 2.42267 39.0313 1.42299 38.0636 1.02166V0.77356H50.549L61.3319 40.9068C62.0086 43.6614 62.7034 45.6498 63.4128 46.8757C64.1295 48.1016 65.0608 48.9444 66.2068 49.4005V49.6632H51.4076V49.4005C52.6081 48.9444 53.3503 47.963 53.634 46.4525C53.9142 44.9347 53.6559 42.6289 52.8628 39.535L52.3535 37.6524H37.8017L37.3797 39.535C36.6412 42.5705 36.3829 44.8472 36.6084 46.3649C36.8412 47.8754 37.5834 48.886 38.8348 49.4005V49.6632H25.9128V49.4005ZM39.0968 32.5007H51.0729L44.7429 9.25262L39.0968 32.5007Z" fill="#FFF4E5"/>
<path d="M83.1353 61.4987C82.0003 61.4987 80.8289 61.3674 79.6283 61.1047C78.4351 60.8493 77.4383 60.5246 76.6452 60.1269L77.4892 57.5584C78.5733 58.0144 79.5592 58.3392 80.4432 58.5362C81.3236 58.7405 82.1385 58.8426 82.8879 58.8426C83.8556 58.8426 84.6233 58.6675 85.1871 58.3173C85.7583 57.9743 86.0457 57.4343 86.0457 56.6973C86.0457 55.5006 85.5 54.9023 84.4159 54.9023C83.6192 54.9023 82.9098 55.2124 82.2913 55.8363L80.4869 54.6396L81.7675 50.4366C76.7507 49.9185 72.8327 47.4813 70.0096 43.1104C67.1865 38.7322 65.775 32.9093 65.775 25.6415C65.775 17.4105 67.3684 11.0841 70.5626 6.65482C73.7531 2.21827 78.3187 0 84.2558 0C86.7587 0 88.6941 0.273636 90.062 0.817259C91.4299 1.35359 92.5722 1.61992 93.4962 1.61992C93.9983 1.61992 94.4275 1.45209 94.7768 1.10914L95.4607 14.842L95.1988 14.915C94.111 11.7736 92.7286 9.37659 91.0515 7.72018C89.3708 6.05647 87.3626 5.22462 85.0271 5.22462C81.6001 5.22462 78.9189 7.03062 76.9799 10.639C75.0372 14.24 74.0696 19.2421 74.0696 25.6415C74.0696 31.3623 75.1209 35.9849 77.2273 39.5057C79.3409 43.0192 82.1094 44.7741 85.5364 44.7741C87.8137 44.7741 89.8364 44.0152 91.6045 42.4975C93.3689 40.9797 94.624 38.9074 95.3734 36.2805H95.8827L96.654 44.3509C93.8018 48.0687 89.9783 50.0936 85.1871 50.4366L84.5032 52.5819C84.7942 52.4651 85.078 52.3775 85.3618 52.3192C85.6528 52.2608 85.9948 52.2316 86.3949 52.2316C87.53 52.2316 88.5668 52.56 89.509 53.224C90.4476 53.8844 90.9205 54.9534 90.9205 56.4347C90.9205 58.1567 90.1347 59.43 88.5632 60.2583C86.9988 61.0828 85.1908 61.4987 83.1353 61.4987Z" fill="#FFF4E5"/>
<path d="M96.1322 49.4005C97.2782 49.0028 98.1876 48.2184 98.8679 47.0508C99.5555 45.876 100.269 43.8256 101.007 40.9068L108.72 11.325C109.571 8.05592 109.956 5.62603 109.869 4.028C109.782 2.42267 109.251 1.42299 108.283 1.02166V0.77356H120.768L131.551 40.9068C132.228 43.6614 132.923 45.6498 133.632 46.8757C134.349 48.1016 135.28 48.9444 136.426 49.4005V49.6632H121.627V49.4005C122.827 48.9444 123.57 47.963 123.853 46.4525C124.134 44.9347 123.875 42.6289 123.082 39.535L122.573 37.6524H108.021L107.599 39.535C106.861 42.5705 106.602 44.8472 106.828 46.3649C107.061 47.8754 107.803 48.886 109.054 49.4005V49.6632H96.1322V49.4005ZM109.316 32.5007H121.292L114.962 9.25262L109.316 32.5007Z" fill="#FFF4E5"/>
<path d="M172.942 50.4366C170.207 50.4366 167.536 49.8966 164.939 48.8166C162.349 47.7294 160.199 46.0949 158.492 43.9131L161.65 32.3401H161.912C162.25 35.1421 163.047 37.4589 164.299 39.2868C165.557 41.1183 167.042 42.4756 168.751 43.3585C170.469 44.2451 172.149 44.6866 173.801 44.6866C175.74 44.6866 177.41 44.1028 178.807 42.9353C180.204 41.7605 180.902 40.0566 180.902 37.8274C180.902 35.9412 180.386 34.3395 179.36 33.026C178.33 31.7053 177.002 30.5159 175.373 29.4651C173.75 28.407 172.044 27.3599 170.25 26.3274C168.453 25.2985 166.743 24.1529 165.114 22.8978C163.491 21.6428 162.167 20.1615 161.141 18.4467C160.111 16.7246 159.598 14.6632 159.598 12.2589C159.598 8.60311 160.824 5.64419 163.28 3.38579C165.732 1.13103 168.955 0 172.942 0C175.453 0 177.563 0.332012 179.272 0.992386C180.979 1.64546 182.292 1.97018 183.216 1.97018C183.671 1.97018 184.009 1.82424 184.235 1.53236L184.657 13.3826L184.322 13.4556C183.409 11.0038 181.954 8.98985 179.956 7.41371C177.955 5.83756 175.816 5.04949 173.539 5.04949C171.829 5.04949 170.345 5.53839 169.086 6.50888C167.835 7.48303 167.209 8.97161 167.209 10.9746C167.209 12.6894 167.722 14.1634 168.751 15.3966C169.777 16.6225 171.087 17.7389 172.68 18.7386C174.281 19.7419 175.991 20.7598 177.817 21.7887C179.64 22.8103 181.346 23.9705 182.939 25.2621C184.54 26.5463 185.853 28.0641 186.883 29.8154C187.909 31.5593 188.425 33.6827 188.425 36.1929C188.425 39.3963 187.683 42.056 186.199 44.1758C184.715 46.2882 182.787 47.8607 180.422 48.8896C178.065 49.9185 175.569 50.4366 172.942 50.4366Z" fill="#FFF4E5"/>
<path d="M209.209 50.5242C204.989 50.5242 201.322 49.426 198.208 47.226C195.101 45.0186 193.093 42.1728 192.183 38.6885C192.987 38.3383 193.471 37.7363 193.638 36.8789C193.813 36.0252 193.929 35.2261 193.988 34.4855L194.759 10.0261C194.817 9.00452 194.773 7.8662 194.628 6.61112C194.482 5.34875 194.151 4.19948 193.638 3.16696C193.122 2.13809 192.27 1.42299 191.077 1.02166V0.77356H206.124V1.02166C204.93 1.42299 204.076 2.13809 203.563 3.16696C203.046 4.19948 202.748 5.34875 202.66 6.61112C202.58 7.8662 202.515 9.00452 202.457 10.0261L201.685 35.6822C201.627 38.6593 202.297 41.0199 203.694 42.7602C205.091 44.5042 207.07 45.3725 209.631 45.3725C212.199 45.3725 214.215 44.5188 215.67 42.804C217.125 41.0819 217.794 38.7396 217.678 35.7698L216.907 10.0261C216.907 9.00452 216.848 7.8662 216.732 6.61112C216.623 5.34875 216.314 4.19948 215.801 3.16696C215.284 2.13809 214.426 1.42299 213.225 1.02166V0.77356H227.253V1.02166C226.06 1.42299 225.205 2.13809 224.692 3.16696C224.175 4.19948 223.862 5.34875 223.746 6.61112C223.637 7.8662 223.586 9.00452 223.586 10.0261L224.343 34.9087C224.401 35.6494 224.539 36.3791 224.765 37.0978C224.997 37.8093 225.456 38.3383 226.147 38.6885C225.234 42.2312 223.237 45.0916 220.152 47.2698C217.074 49.4406 213.429 50.5242 209.209 50.5242Z" fill="#FFF4E5"/>
<path d="M226.136 49.4005C227.282 49.0028 228.192 48.2184 228.872 47.0508C229.56 45.876 230.273 43.8256 231.011 40.9068L238.724 11.325C239.575 8.05592 239.961 5.62603 239.873 4.028C239.786 2.42267 239.255 1.42299 238.287 1.02166V0.77356H250.773L261.555 40.9068C262.232 43.6614 262.927 45.6498 263.636 46.8757C264.353 48.1016 265.284 48.9444 266.43 49.4005V49.6632H251.631V49.4005C252.832 48.9444 253.574 47.963 253.858 46.4525C254.138 44.9347 253.879 42.6289 253.086 39.535L252.577 37.6524H238.025L237.603 39.535C236.865 42.5705 236.606 44.8472 236.832 46.3649C237.065 47.8754 237.807 48.886 239.058 49.4005V49.6632H226.136V49.4005ZM239.32 32.5007H251.296L244.966 9.25262L239.32 32.5007Z" fill="#FFF4E5"/>
<path d="M288.147 49.4005C289.515 48.9444 290.468 47.9922 291.014 46.5401C291.556 45.0807 291.829 42.7456 291.829 39.535V10.8871C291.829 7.68742 291.556 5.35605 291.014 3.89666C290.468 2.43727 289.515 1.48136 288.147 1.02166V0.77356H308.942C313.104 0.77356 316.436 1.86081 318.939 4.028C321.449 6.19885 322.708 8.91331 322.708 12.1714C322.708 14.2948 322.191 16.1847 321.165 17.8484C320.136 19.5048 318.753 20.7891 317.018 21.7012C315.279 22.617 313.355 23.0439 311.241 22.9855C313.122 25.3315 314.915 28.1919 316.625 31.5667C318.342 34.9452 319.743 38.3164 320.831 41.6803C322.199 45.9709 323.792 48.5467 325.618 49.4005V49.6632H311.081L310.994 49.4005C312.98 48.4883 313.548 46.2299 312.696 42.6289C312.016 39.7101 311.03 36.7111 309.742 33.6245C308.462 30.5305 306.966 27.6555 305.26 24.9995C303.55 22.3434 301.64 20.271 299.527 18.7824V39.535C299.527 42.7456 299.796 45.0807 300.342 46.5401C300.884 47.9922 301.841 48.9444 303.208 49.4005V49.6632H288.147V49.4005ZM299.527 7.19488C299.527 9.37667 299.938 11.3104 300.764 13.0033C301.597 14.6889 302.699 16.0023 304.067 16.9436C305.435 17.8886 306.861 18.3592 308.345 18.3592C310.273 18.3592 311.739 17.7864 312.74 16.6371C313.737 15.4915 314.239 14.1781 314.239 12.6968C314.239 10.6354 313.395 8.91696 311.707 7.54513C310.026 6.17331 307.85 5.48739 305.173 5.48739H299.527V7.19488Z" fill="#FFF4E5"/>
<path d="M325.951 49.4005C327.319 48.9444 328.272 47.9922 328.818 46.5401C329.36 45.0807 329.633 42.7456 329.633 39.535V10.8871C329.633 7.68742 329.36 5.35605 328.818 3.89666C328.272 2.43727 327.319 1.48136 325.951 1.02166V0.77356H352.639C353.269 0.77356 353.952 0.715185 354.691 0.598433C355.437 0.481682 355.921 0.313852 356.146 0.0876465L351.621 9.34018L351.359 9.25262C351.639 6.85922 349.983 5.66252 346.396 5.66252H337.331V18.5198H337.505C338.124 17.3814 338.95 16.473 339.979 15.7907C341.005 15.1011 342.147 14.7545 343.399 14.7545C344.941 14.7545 346.396 15.1011 347.764 15.7907C349.132 16.473 350.529 16.8123 351.955 16.8123C353.381 16.8123 354.436 16.2686 355.128 15.1777L355.375 15.2653C354.975 16.8706 354.138 18.4322 352.857 19.95C351.577 21.4604 350.023 22.212 348.201 22.212C347.23 22.212 346.287 22.015 345.378 21.6137C344.465 21.216 343.537 20.8183 342.598 20.417C341.656 20.0083 340.67 19.804 339.644 19.804C338.731 19.804 337.96 20.1214 337.331 20.7526V44.5115H345.974C348.368 44.5115 350.518 43.9132 352.421 42.7165C354.331 41.5125 355.688 39.9108 356.495 37.9151L356.83 38.0026L354.531 50.6118C354.123 49.9769 353.294 49.6632 352.043 49.6632H325.951V49.4005Z" fill="#FFF4E5"/>
<path d="M373.85 50.4366C371.114 50.4366 368.444 49.8966 365.847 48.8166C363.256 47.7294 361.106 46.0949 359.4 43.9131L362.558 32.3401H362.82C363.158 35.1421 363.955 37.4589 365.206 39.2868C366.465 41.1183 367.949 42.4756 369.659 43.3585C371.376 44.2451 373.057 44.6866 374.709 44.6866C376.648 44.6866 378.317 44.1028 379.714 42.9353C381.111 41.7605 381.81 40.0566 381.81 37.8274C381.81 35.9412 381.293 34.3395 380.267 33.026C379.238 31.7053 377.91 30.5159 376.28 29.4651C374.658 28.407 372.952 27.3599 371.158 26.3274C369.361 25.2985 367.651 24.1529 366.021 22.8978C364.399 21.6428 363.074 20.1615 362.049 18.4467C361.019 16.7246 360.506 14.6632 360.506 12.2589C360.506 8.60311 361.732 5.64419 364.188 3.38579C366.64 1.13103 369.863 0 373.85 0C376.36 0 378.47 0.332012 380.18 0.992386C381.886 1.64546 383.2 1.97018 384.124 1.97018C384.578 1.97018 384.917 1.82424 385.142 1.53236L385.564 13.3826L385.23 13.4556C384.316 11.0038 382.861 8.98985 380.864 7.41371C378.863 5.83756 376.724 5.04949 374.447 5.04949C372.737 5.04949 371.253 5.53839 369.994 6.50888C368.742 7.48303 368.117 8.97161 368.117 10.9746C368.117 12.6894 368.63 14.1634 369.659 15.3966C370.685 16.6225 371.995 17.7389 373.588 18.7386C375.189 19.7419 376.899 20.7598 378.725 21.7887C380.548 22.8103 382.254 23.9705 383.847 25.2621C385.448 26.5463 386.761 28.0641 387.791 29.8154C388.817 31.5593 389.333 33.6827 389.333 36.1929C389.333 39.3963 388.591 42.056 387.107 44.1758C385.622 46.2882 383.694 47.8607 381.33 48.8896C378.972 49.9185 376.477 50.4366 373.85 50.4366Z" fill="#FFF4E5"/>
<path d="M391.723 49.4005C393.091 48.9444 394.044 47.9922 394.59 46.5401C395.132 45.0807 395.405 42.7456 395.405 39.535V10.8871C395.405 7.68742 395.132 5.35605 394.59 3.89666C394.044 2.43727 393.091 1.48136 391.723 1.02166V0.77356H418.411C419.041 0.77356 419.724 0.715185 420.463 0.598433C421.209 0.481682 421.693 0.313852 421.918 0.0876465L417.393 9.34018L417.131 9.25262C417.411 6.85922 415.755 5.66252 412.168 5.66252H403.103V18.5198H403.277C403.896 17.3814 404.722 16.473 405.751 15.7907C406.777 15.1011 407.919 14.7545 409.171 14.7545C410.713 14.7545 412.168 15.1011 413.536 15.7907C414.904 16.473 416.301 16.8123 417.727 16.8123C419.153 16.8123 420.208 16.2686 420.9 15.1777L421.147 15.2653C420.747 16.8706 419.91 18.4322 418.629 19.95C417.349 21.4604 415.795 22.212 413.973 22.212C413.002 22.212 412.059 22.015 411.15 21.6137C410.237 21.216 409.309 20.8183 408.37 20.417C407.428 20.0083 406.442 19.804 405.416 19.804C404.503 19.804 403.732 20.1214 403.103 20.7526V44.5115H411.746C414.14 44.5115 416.29 43.9132 418.193 42.7165C420.103 41.5125 421.46 39.9108 422.267 37.9151L422.602 38.0026L420.303 50.6118C419.895 49.9769 419.066 49.6632 417.815 49.6632H391.723V49.4005Z" fill="#FFF4E5"/>
<path d="M424.823 49.4005C426.191 48.9444 427.144 47.9922 427.69 46.5401C428.232 45.0807 428.504 42.7456 428.504 39.535V10.8871C428.504 7.68742 428.232 5.35605 427.69 3.89666C427.144 2.43727 426.191 1.48136 424.823 1.02166V0.77356H445.617C449.779 0.77356 453.112 1.86081 455.614 4.028C458.125 6.19885 459.383 8.91331 459.383 12.1714C459.383 14.2948 458.867 16.1847 457.841 17.8484C456.811 19.5048 455.429 20.7891 453.694 21.7012C451.955 22.617 450.03 23.0439 447.917 22.9855C449.797 25.3315 451.591 28.1919 453.301 31.5667C455.018 34.9452 456.418 38.3164 457.506 41.6803C458.874 45.9709 460.468 48.5467 462.294 49.4005V49.6632H447.757L447.669 49.4005C449.656 48.4883 450.223 46.2299 449.372 42.6289C448.691 39.7101 447.706 36.7111 446.418 33.6245C445.137 30.5305 443.642 27.6555 441.936 24.9995C440.226 22.3434 438.316 20.271 436.202 18.7824V39.535C436.202 42.7456 436.472 45.0807 437.017 46.5401C437.559 47.9922 438.516 48.9444 439.884 49.4005V49.6632H424.823V49.4005ZM436.202 7.19488C436.202 9.37667 436.613 11.3104 437.439 13.0033C438.272 14.6889 439.375 16.0023 440.743 16.9436C442.11 17.8886 443.536 18.3592 445.021 18.3592C446.949 18.3592 448.415 17.7864 449.415 16.6371C450.412 15.4915 450.914 14.1781 450.914 12.6968C450.914 10.6354 450.07 8.91696 448.382 7.54513C446.702 6.17331 444.526 5.48739 441.848 5.48739H436.202V7.19488Z" fill="#FFF4E5"/>
<path d="M465.29 9.51531C464.54 6.65491 463.824 4.62635 463.136 3.42965C462.456 2.22565 461.543 1.42299 460.4 1.02166V0.77356H475.287V1.02166C474.035 1.48136 473.293 2.46645 473.06 3.98422C472.835 5.50199 473.093 7.80418 473.832 10.8871L480.686 40.0604L487.525 10.8871C488.26 7.80418 488.514 5.50199 488.282 3.98422C488.056 2.46645 487.321 1.48136 486.07 1.02166V0.77356H498.904V1.02166C497.817 1.42299 496.914 2.22565 496.198 3.42965C495.488 4.62635 494.764 6.65491 494.03 9.51531L484.105 49.6632H475.2L465.29 9.51531Z" fill="#FFF4E5"/>
<path d="M493.415 49.4005C494.561 49.0028 495.47 48.2184 496.15 47.0508C496.838 45.876 497.551 43.8256 498.29 40.9068L506.002 11.325C506.853 8.05592 507.239 5.62603 507.152 4.028C507.064 2.42267 506.533 1.42299 505.565 1.02166V0.77356H518.051L528.834 40.9068C529.51 43.6614 530.205 45.6498 530.915 46.8757C531.631 48.1016 532.563 48.9444 533.709 49.4005V49.6632H518.909V49.4005C520.11 48.9444 520.852 47.963 521.136 46.4525C521.416 44.9347 521.158 42.6289 520.365 39.535L519.855 37.6524H505.303L504.881 39.535C504.143 42.5705 503.885 44.8472 504.11 46.3649C504.343 47.8754 505.085 48.886 506.337 49.4005V49.6632H493.415V49.4005ZM506.599 32.5007H518.575L512.245 9.25262L506.599 32.5007Z" fill="#FFF4E5"/>
<path d="M174.955 23.9654C174.955 23.2758 175.108 22.7504 175.421 22.3892C175.741 22.0317 176.192 21.8492 176.774 21.8492C177.374 21.8492 177.84 22.0317 178.171 22.3892C178.509 22.7504 178.68 23.2758 178.68 23.9654C178.68 24.6367 178.509 25.1548 178.171 25.5123C177.829 25.8699 177.364 26.0523 176.774 26.0523C176.25 26.0523 175.814 25.8918 175.465 25.5707C175.123 25.2423 174.955 24.706 174.955 23.9654Z" fill="#FFF4E5"/>
</g>
<defs>
<clipPath id="clip0_2071_14">
<rect width="533.709" height="61.4987" fill="white"/>
</clipPath>
</defs>
</svg>
